<?xml version="1.0" encoding="iso-8859-1"?>
<!-- Generator: Adobe Illustrator 19.0.0, SVG Export Plug-In . SVG Version: 6.00 Build 0)  -->
<svg xmlns="http://www.w3.org/2000/svg" xmlns:xlink="http://www.w3.org/1999/xlink" version="1.1" id="Layer_1" x="0px" y="0px" viewBox="0 0 478.68 478.68" style="enable-background:new 0 0 478.68 478.68;" xml:space="preserve" width="512" height="512">
<g id="_x32_8._School_2_">
	<g id="XMLID_76_">
		<g>
			<g>
				<polygon style="fill:#F2D59F;" points="468.68,255.61 468.68,463.15 376.95,463.15 376.95,255.6 468.67,255.6     "/>
			</g>
			<g>
				<polygon style="fill:#8ECAC1;" points="416.91,186.8 468.67,255.6 376.95,255.6 376.95,186.8     "/>
			</g>
			<g>
				<path style="fill:#F2D59F;" d="M376.95,255.6v207.55h-91.74v-100.4h-45.87h-45.87v100.4h-91.74V255.6v-68.8L239.34,118      l137.61,68.8V255.6z M261.92,205.41c0-12.47-10.11-22.58-22.58-22.58s-22.58,10.11-22.58,22.58s10.11,22.58,22.58,22.58      S261.92,217.88,261.92,205.41z"/>
			</g>
			<g>
				<polygon style="fill:#FF7124;" points="326.06,15.53 294.99,41.85 326.06,68.17 239.34,68.17 239.34,15.53     "/>
			</g>
			<g>
				<rect x="239.34" y="362.75" style="fill:#FF7124;" width="45.87" height="100.4"/>
			</g>
			<g>
				<circle style="fill:#E6B263;" cx="239.34" cy="205.41" r="22.58"/>
			</g>
			<g>
				<rect x="193.47" y="362.75" style="fill:#FF7124;" width="45.87" height="100.4"/>
			</g>
			<g>
				<polygon style="fill:#F2D59F;" points="101.73,255.6 101.73,463.15 10,463.15 10,255.61 10.01,255.6     "/>
			</g>
			<g>
				<polygon style="fill:#8ECAC1;" points="101.73,186.8 101.73,255.6 10.01,255.6 61.77,186.8     "/>
			</g>
		</g>
		<g>
			<g>
				<path style="fill:#5E2A41;" d="M376.95,473.15h-91.74c-5.522,0-10-4.477-10-10c0-5.523,4.478-10,10-10h91.74      c5.522,0,10,4.477,10,10C386.95,468.673,382.473,473.15,376.95,473.15z"/>
			</g>
			<g>
				<path style="fill:#5E2A41;" d="M193.47,473.15h-91.74c-5.522,0-10-4.477-10-10c0-5.523,4.478-10,10-10h91.74      c5.522,0,10,4.477,10,10C203.47,468.673,198.992,473.15,193.47,473.15z"/>
			</g>
			<g>
				<path style="fill:#5E2A41;" d="M101.729,473.15H10c-5.523,0-10-4.477-10-10V255.61c0-5.523,4.477-10,10-10      c5.522,0,10,4.477,10,10v197.54h81.729c5.522,0,10,4.477,10,10C111.729,468.673,107.252,473.15,101.729,473.15z"/>
			</g>
			<g>
				<path style="fill:#5E2A41;" d="M101.729,265.6H10.01c-5.522,0-10-4.477-10-10c0-5.523,4.478-10,10-10h91.72      c5.522,0,10,4.477,10,10C111.729,261.122,107.252,265.6,101.729,265.6z"/>
			</g>
			<g>
				<path style="fill:#5E2A41;" d="M468.67,265.6h-91.72c-5.522,0-10-4.477-10-10c0-5.523,4.478-10,10-10h91.72      c5.522,0,10,4.477,10,10C478.67,261.122,474.192,265.6,468.67,265.6z"/>
			</g>
			<g>
				<path style="fill:#5E2A41;" d="M468.68,473.15H376.95c-5.522,0-10-4.477-10-10c0-5.523,4.478-10,10-10h81.729V255.61      c0-5.523,4.478-10,10-10c5.522,0,10,4.477,10,10v207.54C478.68,468.673,474.202,473.15,468.68,473.15z"/>
			</g>
			<g>
				<path style="fill:#5E2A41;" d="M285.21,472.15h-91.74c-4.971,0-9-4.029-9-9v-100.4c0-4.971,4.029-9,9-9h91.74      c4.971,0,9,4.029,9,9v100.4C294.21,468.121,290.181,472.15,285.21,472.15z M202.47,454.15h73.74v-82.4h-73.74V454.15z"/>
			</g>
			<g>
				<path style="fill:#5E2A41;" d="M55.87,424.57c-5.522,0-10-4.477-10-10V392.6c0-5.523,4.478-10,10-10c5.522,0,10,4.477,10,10      v21.97C65.87,420.093,61.393,424.57,55.87,424.57z"/>
			</g>
			<g>
				<path style="fill:#5E2A41;" d="M422.81,424.57c-5.522,0-10-4.477-10-10V392.6c0-5.523,4.478-10,10-10c5.522,0,10,4.477,10,10      v21.97C432.81,420.093,428.332,424.57,422.81,424.57z"/>
			</g>
			<g>
				<path style="fill:#5E2A41;" d="M55.87,345.09c-5.522,0-10-4.477-10-10v-21.97c0-5.523,4.478-10,10-10c5.522,0,10,4.477,10,10      v21.97C65.87,340.613,61.393,345.09,55.87,345.09z"/>
			</g>
			<g>
				<path style="fill:#5E2A41;" d="M422.81,345.09c-5.522,0-10-4.477-10-10v-21.97c0-5.523,4.478-10,10-10c5.522,0,10,4.477,10,10      v21.97C432.81,340.613,428.332,345.09,422.81,345.09z"/>
			</g>
			<g>
				<path style="fill:#5E2A41;" d="M147.6,394.71c-5.522,0-10-4.477-10-10v-21.96c0-5.523,4.478-10,10-10c5.522,0,10,4.477,10,10      v21.96C157.6,390.233,153.122,394.71,147.6,394.71z"/>
			</g>
			<g>
				<path style="fill:#5E2A41;" d="M331.08,394.71c-5.522,0-10-4.477-10-10v-21.96c0-5.523,4.478-10,10-10c5.523,0,10,4.477,10,10      v21.96C341.08,390.233,336.603,394.71,331.08,394.71z"/>
			</g>
			<g>
				<path style="fill:#5E2A41;" d="M147.6,315.23c-5.522,0-10-4.477-10-10v-21.96c0-5.523,4.478-10,10-10c5.522,0,10,4.477,10,10      v21.96C157.6,310.753,153.122,315.23,147.6,315.23z"/>
			</g>
			<g>
				<path style="fill:#5E2A41;" d="M331.08,315.23c-5.522,0-10-4.477-10-10v-21.96c0-5.523,4.478-10,10-10c5.523,0,10,4.477,10,10      v21.96C341.08,310.753,336.603,315.23,331.08,315.23z"/>
			</g>
			<g>
				<path style="fill:#5E2A41;" d="M239.34,315.23c-5.522,0-10-4.477-10-10v-21.96c0-5.523,4.478-10,10-10c5.523,0,10,4.477,10,10      v21.96C249.34,310.753,244.862,315.23,239.34,315.23z"/>
			</g>
			<g>
				<path style="fill:#5E2A41;" d="M468.674,265.607c-2.639,0-5.271-1.039-7.235-3.101c-0.267-0.28-0.527-0.586-0.76-0.895      L411.92,196.8h-34.97c-5.522,0-10-4.477-10-10c0-5.523,4.478-10,10-10h39.96c3.143,0,6.102,1.477,7.991,3.988l51.684,68.698      c3.102,4.005,2.733,9.791-1.014,13.36C473.635,264.691,471.151,265.607,468.674,265.607z"/>
			</g>
			<g>
				<path style="fill:#5E2A41;" d="M10.001,265.603c-2.478,0-4.958-0.914-6.892-2.756c-3.769-3.589-4.127-9.413-0.969-13.418      l51.639-68.64c1.89-2.511,4.849-3.988,7.991-3.988h39.96c5.522,0,10,4.477,10,10c0,5.523-4.478,10-10,10H66.76l-48.759,64.811      c-0.232,0.309-0.483,0.604-0.75,0.885C15.284,264.561,12.644,265.603,10.001,265.603z"/>
			</g>
			<g>
				<path style="fill:#5E2A41;" d="M239.34,472.15c-4.971,0-9-4.029-9-9v-100.4c0-4.971,4.029-9,9-9s9,4.029,9,9v100.4      C248.34,468.121,244.311,472.15,239.34,472.15z"/>
			</g>
			<g>
				<path style="fill:#5E2A41;" d="M376.95,473.15c-5.522,0-10-4.477-10-10V192.98l-127.61-63.8l-127.61,63.8V463.15      c0,5.523-4.478,10-10,10c-5.522,0-10-4.477-10-10V186.8c0-3.788,2.141-7.251,5.528-8.944l137.61-68.8      c2.814-1.407,6.129-1.407,8.943,0l137.61,68.8c3.388,1.694,5.528,5.157,5.528,8.944v276.35      C386.95,468.673,382.473,473.15,376.95,473.15z"/>
			</g>
			<g>
				<path style="fill:#5E2A41;" d="M239.34,128c-5.522,0-10-4.477-10-10V68.17c0-5.523,4.478-10,10-10c5.523,0,10,4.477,10,10V118      C249.34,123.523,244.862,128,239.34,128z"/>
			</g>
			<g>
				<path style="fill:#5E2A41;" d="M326.06,78.17h-86.72c-5.522,0-10-4.477-10-10V15.53c0-5.523,4.478-10,10-10h86.72      c4.195,0,7.944,2.619,9.389,6.558c1.444,3.939,0.276,8.361-2.925,11.073l-22.063,18.69l22.063,18.69      c3.201,2.712,4.369,7.134,2.925,11.073C334.004,75.551,330.255,78.17,326.06,78.17z M249.34,58.17h49.444l-10.258-8.69      c-2.243-1.9-3.536-4.69-3.536-7.63c0-2.94,1.293-5.73,3.536-7.63l10.258-8.69H249.34V58.17z"/>
			</g>
			<g>
				<path style="fill:#5E2A41;" d="M239.34,236.99c-17.413,0-31.58-14.167-31.58-31.58s14.167-31.58,31.58-31.58      s31.58,14.167,31.58,31.58S256.753,236.99,239.34,236.99z M239.34,191.83c-7.488,0-13.58,6.092-13.58,13.58      c0,7.488,6.092,13.58,13.58,13.58s13.58-6.092,13.58-13.58C252.92,197.922,246.828,191.83,239.34,191.83z"/>
			</g>
		</g>
	</g>
</g>















</svg>
