<?xml version="1.0" standalone="no"?>
<!DOCTYPE svg PUBLIC "-//W3C//DTD SVG 20010904//EN"
 "http://www.w3.org/TR/2001/REC-SVG-20010904/DTD/svg10.dtd">
<svg version="1.0" xmlns="http://www.w3.org/2000/svg"
 width="1970.000000pt" height="2000.000000pt" viewBox="0 0 1970.000000 2000.000000"
 preserveAspectRatio="xMidYMid meet">

<g transform="translate(0.000000,2000.000000) scale(0.100000,-0.100000)"
fill="#000000" stroke="none">
<path d="M12044 19148 c-21 -18 -59 -56 -86 -84 -29 -31 -60 -54 -78 -58 -17
-3 -29 -11 -28 -17 2 -7 -12 -16 -29 -21 -18 -5 -33 -13 -33 -19 0 -6 -8 -8
-17 -5 -10 3 -55 6 -100 8 -75 2 -84 0 -118 -26 -31 -24 -52 -30 -124 -37 -47
-5 -92 -11 -100 -14 -8 -3 -18 0 -22 6 -5 9 -23 10 -66 3 -32 -5 -110 -6 -173
-3 -102 6 -118 4 -147 -13 -17 -10 -33 -22 -35 -26 -2 -4 -19 -20 -38 -34 -28
-21 -44 -25 -76 -22 -29 3 -46 -1 -54 -11 -7 -8 -18 -15 -26 -15 -7 0 -17 -6
-21 -12 -11 -18 -60 -50 -123 -82 -47 -24 -62 -27 -105 -21 -27 3 -65 13 -83
22 -39 19 -141 12 -175 -12 -12 -8 -28 -15 -36 -15 -7 0 -51 -22 -97 -50 -46
-27 -91 -50 -101 -50 -10 0 -39 -7 -65 -15 -27 -8 -65 -17 -86 -20 -21 -3 -63
-15 -93 -26 -30 -12 -76 -25 -102 -29 -55 -10 -140 -49 -209 -96 -47 -32 -120
-54 -178 -54 -18 0 -36 -9 -52 -27 -44 -51 -57 -56 -178 -69 -67 -7 -133 -19
-152 -28 -54 -28 -235 -66 -311 -67 -121 0 -246 -22 -310 -54 -33 -15 -61 -34
-64 -41 -2 -7 -23 -15 -46 -19 -81 -12 -147 -36 -171 -60 -14 -14 -30 -25 -36
-25 -5 0 -10 -9 -10 -20 0 -11 -6 -20 -13 -20 -8 0 -22 -9 -32 -20 -10 -12
-24 -19 -31 -16 -40 15 -173 -96 -174 -145 0 -15 -7 -29 -15 -33 -10 -4 -15
-20 -15 -50 0 -38 7 -52 45 -100 34 -42 43 -59 35 -68 -55 -65 -59 -73 -39
-80 8 -3 6 -10 -5 -20 -9 -9 -16 -21 -16 -25 0 -15 -52 -56 -92 -75 -26 -12
-38 -24 -38 -38 0 -11 -5 -20 -11 -20 -6 0 -8 -8 -4 -19 3 -11 1 -22 -4 -25
-6 -4 -6 -18 -1 -35 5 -18 4 -33 -2 -39 -8 -8 0 -16 25 -28 19 -9 39 -26 44
-38 12 -27 10 -126 -4 -150 -11 -20 11 -73 48 -112 11 -12 27 -39 34 -61 9
-24 19 -37 29 -35 13 2 14 -12 11 -92 l-4 -95 50 -37 c75 -54 82 -75 50 -147
-10 -23 -24 -69 -31 -102 -7 -33 -21 -81 -31 -107 -11 -27 -19 -74 -20 -113
-1 -37 -8 -80 -15 -94 -10 -17 -14 -57 -13 -120 1 -51 -3 -96 -8 -100 -13 -9
-33 -81 -22 -81 5 0 9 -8 9 -19 0 -10 7 -24 15 -31 8 -7 12 -16 9 -21 -3 -5 2
-9 10 -9 13 0 14 -15 11 -95 -3 -81 -1 -95 12 -95 9 0 13 -6 9 -15 -3 -9 11
-41 31 -73 23 -36 36 -67 35 -84 -1 -16 2 -28 8 -28 5 0 10 -20 10 -45 0 -27
5 -45 11 -45 8 0 10 -15 7 -44 -3 -25 -2 -48 3 -53 14 -14 39 -107 30 -113
-23 -14 -41 -72 -35 -107 4 -23 3 -34 -3 -30 -15 9 12 -122 33 -164 7 -14 15
-64 17 -110 2 -52 10 -96 20 -116 9 -18 17 -46 17 -63 0 -22 9 -39 29 -58 32
-29 51 -69 51 -108 0 -13 5 -24 10 -24 6 0 10 -7 10 -15 0 -8 5 -16 10 -16 6
-1 16 -2 23 -3 6 -1 14 2 17 6 9 12 70 -48 81 -81 9 -25 8 -36 -5 -56 -9 -14
-14 -29 -11 -34 2 -5 -2 -21 -9 -37 -9 -15 -12 -40 -9 -56 4 -20 1 -28 -8 -28
-8 0 -4 -7 9 -16 12 -8 22 -24 22 -35 0 -10 5 -19 11 -19 6 0 3 -7 -5 -16 -9
-8 -16 -18 -17 -22 -3 -33 -11 -58 -19 -60 -6 -2 -10 -10 -10 -18 0 -9 -4 -12
-10 -9 -5 3 -10 0 -10 -9 0 -8 -6 -17 -12 -19 -10 -4 -10 -7 -1 -14 8 -6 12
-36 12 -83 1 -77 21 -156 36 -143 5 5 4 0 -3 -9 -8 -10 -12 -37 -9 -70 l3 -53
2 60 c1 37 6 55 11 50 10 -10 18 -101 11 -120 -2 -5 -1 -35 4 -65 5 -39 10
-50 16 -40 7 11 10 5 10 -22 0 -20 4 -38 10 -40 5 -2 11 -15 12 -30 1 -16 5
-28 9 -28 3 0 19 -33 34 -72 16 -40 41 -88 55 -107 17 -24 21 -36 12 -39 -6
-2 -13 -11 -13 -20 -1 -9 -5 -3 -10 13 -5 21 -6 14 -2 -23 5 -49 3 -54 -13
-50 -23 4 -64 -42 -81 -91 -17 -48 -16 -54 6 -48 14 3 17 0 14 -14 -4 -15 -8
-17 -19 -8 -11 9 -14 6 -14 -19 0 -42 -14 -45 -210 -43 -118 0 -161 -2 -150
-10 11 -8 9 -9 -10 -3 -27 8 -108 6 -122 -2 -5 -3 -32 0 -59 6 -47 11 -56 10
-117 -13 -37 -15 -96 -36 -131 -49 -36 -12 -85 -37 -109 -56 -91 -69 -99 -72
-204 -72 -54 0 -98 -4 -98 -9 0 -13 -172 -19 -201 -6 -11 4 -24 -1 -37 -15
-11 -12 -66 -45 -124 -74 l-103 -53 -115 -5 c-68 -3 -127 -11 -145 -19 -32
-15 -108 -88 -167 -161 -20 -25 -83 -80 -140 -123 -57 -43 -104 -82 -106 -87
-2 -4 -9 -8 -15 -8 -7 0 -38 -14 -70 -31 -48 -25 -79 -33 -185 -44 -70 -8
-137 -17 -149 -20 -39 -9 -61 -43 -72 -113 -6 -37 -14 -79 -17 -94 -3 -16 -38
-57 -87 -105 -129 -124 -167 -166 -173 -193 -3 -14 -8 -33 -11 -42 -6 -26 -93
-106 -128 -119 -42 -15 -219 -101 -225 -109 -3 -3 -43 -29 -90 -57 l-85 -50
-135 -7 c-214 -11 -265 -16 -319 -30 -34 -9 -66 -10 -94 -5 -31 6 -47 4 -62
-7 -11 -8 -48 -33 -83 -55 -34 -22 -74 -56 -90 -74 -37 -45 -195 -173 -264
-214 -31 -19 -55 -38 -53 -41 6 -10 -103 -62 -115 -55 -19 12 -119 -48 -174
-105 -77 -80 -122 -100 -219 -100 -47 0 -92 -6 -114 -15 -20 -8 -61 -18 -92
-21 -31 -3 -78 -12 -105 -20 -27 -8 -70 -14 -94 -14 -25 0 -60 -9 -81 -20 -97
-53 -125 -57 -301 -50 -91 3 -172 3 -181 -1 -9 -5 -47 -11 -85 -15 -100 -10
-172 -49 -270 -148 -174 -174 -322 -316 -332 -316 -5 0 -26 -13 -47 -30 -21
-16 -34 -30 -30 -30 12 0 -155 -161 -207 -200 -26 -19 -48 -41 -48 -47 0 -7
-4 -13 -10 -13 -6 0 -10 -33 -10 -80 0 -47 -4 -80 -10 -80 -5 0 -10 -8 -10
-19 0 -10 -28 -43 -65 -76 -111 -97 -132 -130 -156 -236 -12 -52 -22 -116 -24
-144 -2 -54 -12 -85 -26 -85 -11 0 -11 -197 0 -225 9 -23 -6 -75 -21 -75 -7 0
-9 -39 -5 -117 7 -150 -7 -263 -37 -317 -14 -24 -26 -66 -30 -101 -3 -33 -12
-78 -20 -100 -9 -22 -15 -59 -16 -82 0 -44 -27 -103 -47 -103 -15 0 -84 -226
-112 -365 -4 -22 -20 -74 -35 -115 -15 -41 -32 -93 -38 -115 -6 -22 -14 -42
-18 -45 -7 -5 -19 -114 -23 -200 -1 -19 -9 -42 -18 -51 -19 -19 -31 -137 -34
-334 -1 -91 -7 -143 -18 -172 -9 -24 -12 -43 -7 -43 4 0 6 -9 3 -20 -3 -11 -9
-17 -14 -14 -5 3 -9 -7 -8 -23 0 -25 1 -26 9 -8 7 17 9 15 9 -12 1 -18 -3 -33
-8 -33 -19 0 -4 -118 23 -175 19 -41 42 -119 56 -185 14 -70 62 -214 101 -298
16 -36 29 -71 29 -78 0 -7 4 -14 8 -16 12 -4 62 -106 62 -126 0 -9 18 -69 39
-132 47 -139 68 -257 81 -455 6 -83 15 -197 21 -255 14 -141 14 -160 0 -270
-18 -135 -17 -132 -51 -170 -18 -20 -30 -45 -30 -62 0 -30 31 -68 56 -68 17 0
61 -90 69 -143 9 -60 18 -92 27 -98 5 -3 17 -37 27 -75 10 -38 23 -79 29 -91
7 -12 12 -32 12 -44 0 -18 75 -175 90 -189 25 -22 47 -72 49 -109 2 -37 9 -51
37 -78 18 -19 34 -36 34 -38 0 -2 14 -17 30 -33 17 -17 30 -38 30 -46 0 -9 5
-16 10 -16 13 0 50 -37 50 -50 0 -5 4 -10 9 -10 11 0 43 -79 36 -90 -3 -4 0
-10 5 -12 6 -2 15 -28 19 -58 4 -30 12 -64 18 -75 6 -11 12 -45 12 -75 1 -30
2 -75 3 -100 0 -33 3 -40 9 -25 5 13 8 -7 8 -55 1 -75 13 -174 28 -220 4 -14
7 -158 8 -320 0 -291 0 -296 23 -324 12 -16 22 -34 22 -40 0 -6 10 -23 23 -38
17 -20 33 -27 75 -31 28 -2 52 0 52 4 0 5 5 9 11 9 5 0 7 -5 4 -11 -5 -7 4 -8
27 -4 41 8 68 -13 68 -51 0 -13 5 -24 10 -24 6 0 10 -22 10 -50 0 -27 -4 -50
-8 -50 -20 0 -31 -75 -32 -205 -2 -261 -2 -255 19 -255 23 0 40 -55 22 -73 -6
-6 -11 -28 -11 -49 l0 -38 8011 0 8010 0 -2 63 c-1 34 2 94 6 132 11 106 7
1067 -5 1250 -6 88 -13 207 -15 265 -3 58 -10 152 -16 210 -6 58 -12 125 -13
150 -2 25 -9 78 -16 119 -18 107 -17 411 1 486 11 44 13 74 6 110 -11 63 -15
255 -6 275 18 39 31 195 33 415 1 132 6 249 11 260 9 20 35 44 46 41 3 0 13 5
22 13 32 26 20 58 -47 124 -66 65 -91 117 -80 163 3 13 -1 33 -10 46 -20 28
-20 38 -1 38 9 0 15 10 15 26 0 18 22 48 75 104 41 43 75 85 75 92 0 7 -9 28
-20 46 -11 18 -21 44 -22 57 -1 14 -6 25 -10 25 -4 0 -8 10 -8 23 0 12 -9 40
-19 60 -10 21 -18 45 -16 55 2 9 9 53 16 97 7 44 19 90 26 102 12 18 12 26 1
50 -7 15 -24 30 -38 33 -14 3 -26 14 -28 25 -4 21 -110 134 -127 135 -13 0
-55 45 -55 57 0 6 -9 18 -20 28 -11 10 -20 14 -20 10 0 -4 -12 5 -26 21 -14
16 -38 44 -55 61 -16 18 -29 36 -29 41 0 5 -38 48 -85 96 -60 61 -85 93 -85
111 0 22 -33 65 -51 65 -4 0 -10 12 -13 26 -4 15 -10 24 -13 20 -9 -8 -43 24
-43 40 0 7 -10 21 -22 31 -13 10 -25 27 -26 38 -2 11 -8 23 -14 26 -5 3 -7 21
-4 40 4 20 0 51 -8 74 -8 22 -10 41 -5 43 5 2 9 26 9 53 0 31 -4 48 -10 44 -6
-3 -10 5 -10 19 0 14 -5 28 -11 32 -7 4 -8 9 -1 13 6 4 4 24 -5 56 -9 34 -15
124 -18 275 -4 230 -9 300 -24 310 -5 3 -11 16 -15 30 -11 38 -30 74 -43 83
-7 4 -25 33 -39 64 -15 30 -35 58 -45 60 -22 6 -34 52 -30 116 2 26 -1 47 -6
47 -14 0 -73 61 -90 93 -8 16 -10 26 -4 23 14 -9 14 -9 -2 34 -21 56 -40 90
-49 90 -4 0 -15 18 -24 40 -9 22 -21 38 -27 37 -7 -1 -11 8 -10 21 2 13 0 21
-5 19 -4 -3 -7 8 -8 25 -1 28 -5 44 -38 155 -9 28 -16 75 -16 102 0 28 -4 51
-10 51 -5 0 -10 7 -10 15 0 8 4 15 8 15 4 0 9 23 10 50 1 29 -2 50 -8 50 -7 0
-8 20 -3 57 8 59 10 173 4 253 -1 25 0 65 3 90 13 108 9 590 -5 590 -5 0 -9 7
-9 15 0 8 4 15 9 15 6 0 9 18 9 40 0 22 -4 40 -9 40 -5 0 -9 18 -9 40 0 22 4
40 9 40 5 0 9 31 10 70 0 38 4 82 7 96 4 15 3 25 -2 21 -20 -12 -24 194 -5
217 7 9 24 48 36 88 34 105 69 198 88 235 13 24 17 58 17 133 0 60 4 100 10
100 13 0 13 46 0 71 -6 11 -12 96 -14 190 -2 120 -7 173 -15 178 -7 4 -13 17
-14 29 0 11 -5 20 -9 19 -10 -2 -67 135 -73 174 -2 15 -16 46 -31 70 -16 24
-39 67 -52 94 -13 28 -41 69 -64 91 -22 23 -40 46 -40 50 -1 15 -78 98 -78 84
0 -13 -15 -5 -15 8 -2 25 -34 56 -85 82 -33 17 -60 36 -60 44 0 8 -7 17 -16
20 -9 4 -14 9 -11 13 4 3 2 12 -4 20 -6 7 -8 13 -4 13 4 0 2 7 -5 15 -7 8 -16
13 -20 10 -4 -3 -10 1 -13 9 -3 7 -33 34 -67 60 -35 25 -81 69 -103 96 -22 28
-45 50 -52 50 -12 0 -29 19 -91 100 -50 66 -110 122 -154 145 -17 9 -28 20
-25 25 5 9 -50 60 -66 60 -5 0 -11 11 -15 25 -3 14 -10 25 -14 25 -4 0 -10 9
-13 21 -3 11 -15 23 -26 26 -12 3 -21 9 -21 14 0 5 -6 9 -14 9 -16 0 -59 54
-50 63 3 3 -2 17 -11 31 -9 14 -18 32 -19 41 -2 15 -66 80 -66 67 0 -3 -7 4
-16 17 -10 13 -19 46 -21 74 -4 54 -23 102 -54 135 -10 12 -19 25 -18 29 4 22
-5 37 -43 75 -74 74 -108 119 -108 145 0 14 18 84 40 156 23 73 50 164 62 202
12 39 27 84 35 102 36 85 82 246 83 289 0 27 1 69 2 94 0 25 0 56 0 70 -1 14
-2 50 -2 80 -1 58 -15 151 -29 185 -5 11 -14 33 -20 48 -7 18 -15 26 -24 21
-9 -6 -9 -4 1 8 9 11 10 18 2 23 -5 3 -10 17 -10 30 0 21 -60 91 -114 134 -22
17 -129 51 -161 51 -33 0 -55 10 -55 26 0 7 -6 17 -13 21 -16 10 -47 90 -47
120 0 12 4 24 9 27 5 4 7 20 5 36 -4 23 -1 30 11 30 13 0 16 6 11 24 -4 16 0
30 9 40 8 8 15 19 15 24 0 6 6 13 13 15 10 4 10 6 0 6 -17 1 -16 41 1 64 15
20 10 54 -11 75 -16 16 -17 64 -2 79 9 9 6 23 -10 55 -26 55 -26 84 0 184 12
47 19 96 16 121 -3 27 0 49 9 60 17 22 18 65 2 81 -6 6 -11 24 -10 41 0 17 -5
32 -14 35 -16 6 -19 33 -3 38 6 2 11 35 12 81 1 42 5 77 9 77 18 0 6 43 -22
82 -16 22 -30 47 -30 53 0 7 -11 20 -25 29 -14 9 -28 29 -31 44 -4 15 -10 29
-14 32 -23 18 -63 85 -65 109 -2 28 -31 77 -67 113 -21 21 -22 28 -6 82 13 43
26 59 42 49 5 -4 7 1 3 11 -6 16 26 76 46 84 4 2 7 12 7 23 0 10 6 19 14 19
18 0 26 22 19 50 -3 12 -1 31 5 43 12 24 42 129 42 145 0 6 -23 32 -51 59 -28
26 -85 89 -127 138 -42 50 -82 94 -89 98 -17 11 -46 67 -35 67 5 0 9 18 9 40
0 22 -3 40 -8 40 -4 0 0 14 8 32 19 38 19 99 0 113 -10 7 -12 17 -7 31 5 12 6
36 3 55 -3 19 -6 91 -7 161 -1 84 -5 131 -13 139 -7 7 -9 24 -6 39 7 38 -16
77 -92 156 -35 37 -67 75 -71 86 -3 10 -10 16 -15 12 -6 -3 -13 3 -15 13 -3
11 -19 27 -35 37 -17 10 -28 20 -25 23 2 3 -7 17 -22 31 -15 15 -27 32 -27 37
0 21 -39 74 -64 86 -39 20 -60 40 -55 52 2 7 -14 34 -36 61 -22 26 -40 56 -40
67 0 24 -21 71 -39 85 -8 6 -12 20 -9 32 4 13 -1 27 -13 38 -10 9 -19 23 -19
31 0 8 -11 29 -25 47 -14 18 -25 39 -25 45 0 7 -6 27 -14 44 -8 18 -16 40 -20
50 -3 10 -15 17 -31 17 -14 0 -25 6 -25 13 0 8 -17 22 -37 33 -40 20 -118 94
-99 94 6 0 0 7 -12 16 -12 8 -47 18 -78 21 -41 5 -54 9 -50 20 3 8 -2 17 -12
20 -9 4 -32 21 -50 38 -38 36 -103 61 -184 70 -40 4 -64 13 -83 31 -14 13 -35
24 -45 24 -10 0 -32 12 -47 26 -91 85 -113 98 -176 101 -86 5 -101 10 -135 37
-42 37 -108 56 -189 56 -67 0 -75 -2 -109 -32z m-524 -1682 c0 -2 -7 -6 -15
-10 -8 -3 -15 -1 -15 4 0 6 7 10 15 10 8 0 15 -2 15 -4z m587 -832 c-3 -3 -12
-4 -19 -1 -8 3 -5 6 6 6 11 1 17 -2 13 -5z m-107 -34 c8 -5 11 -10 5 -10 -5 0
-17 5 -25 10 -8 5 -10 10 -5 10 6 0 17 -5 25 -10z m-483 -26 c-3 -3 -12 -4
-19 -1 -8 3 -5 6 6 6 11 1 17 -2 13 -5z m-1855 -215 c-3 -24 -8 -37 -13 -32
-10 10 -1 73 10 73 4 0 5 -18 3 -41z m3525 -4 c8 -9 13 -18 11 -21 -3 -2 -13
5 -23 16 -21 23 -11 27 12 5z m-3626 -58 c16 -14 20 -15 25 -3 3 8 13 12 25 9
10 -3 19 0 19 6 0 23 30 -3 31 -28 0 -14 3 -20 6 -12 3 7 14 22 23 31 17 17
18 17 24 -3 3 -12 6 -35 7 -52 0 -16 3 -23 6 -15 34 93 69 128 57 57 -5 -32
-5 -32 13 -12 17 19 19 19 52 3 30 -15 121 -104 121 -119 0 -3 11 -18 25 -33
14 -15 25 -33 25 -40 0 -8 20 -31 44 -53 24 -22 58 -63 76 -91 17 -29 37 -52
43 -52 7 0 30 -16 52 -35 22 -19 43 -35 47 -35 4 0 20 -12 36 -27 16 -16 35
-29 43 -31 8 -2 21 -10 30 -18 21 -19 39 -18 39 3 0 24 12 8 14 -19 1 -13 7
-22 15 -20 19 4 69 -29 74 -49 3 -12 11 -16 24 -13 13 4 31 -6 54 -28 19 -19
42 -37 52 -41 9 -3 17 -11 17 -17 0 -7 8 -9 19 -5 20 6 23 4 70 -57 21 -28 31
-34 39 -26 9 9 15 7 25 -7 8 -10 19 -15 25 -11 7 4 12 2 12 -3 0 -6 4 -11 10
-11 5 0 7 7 4 15 -4 8 -1 15 4 15 6 0 14 -9 17 -21 4 -11 9 -18 12 -15 3 2 -3
18 -13 35 -10 17 -21 26 -24 20 -4 -6 -36 19 -74 55 -37 37 -62 66 -56 66 6 0
26 -16 46 -35 33 -34 64 -46 64 -25 0 6 8 2 19 -7 98 -93 123 -112 150 -111
15 1 33 -2 40 -6 20 -13 12 3 -16 29 -16 15 -38 31 -50 36 -13 4 -23 15 -23
24 0 9 -9 15 -24 15 -13 0 -30 8 -37 17 -10 11 -10 14 -1 9 6 -4 12 -3 12 3 0
5 -10 13 -22 17 -26 8 -53 32 -45 40 9 9 -33 45 -43 39 -6 -4 -13 1 -16 10 -4
10 -13 13 -25 10 -29 -10 -23 2 11 18 26 13 31 13 41 0 7 -8 26 -21 43 -30 17
-9 56 -35 86 -58 57 -44 100 -64 100 -47 0 6 -19 25 -42 44 -24 18 -44 36 -46
40 -2 5 -11 8 -20 8 -25 1 -58 28 -46 39 5 6 30 3 64 -9 54 -18 81 -18 47 1
-30 17 -18 26 34 25 38 -1 53 -6 61 -19 9 -18 10 -18 24 0 10 13 16 15 22 6 9
-14 77 -44 84 -37 6 5 37 -11 82 -41 16 -11 39 -20 50 -21 12 0 38 -6 59 -13
21 -7 44 -10 53 -7 8 3 37 -3 65 -14 28 -11 56 -20 62 -19 7 1 19 0 27 -4 35
-13 147 -36 175 -36 415 11 410 10 400 52 -6 21 -1 23 82 36 137 21 231 25
248 11 8 -6 19 -9 24 -6 5 4 13 1 16 -4 4 -7 29 -9 63 -7 34 3 71 -1 95 -9 49
-17 58 -11 26 15 -23 19 -23 20 -4 21 11 0 30 -7 42 -15 16 -11 32 -13 68 -6
26 5 56 6 68 4 12 -3 59 -43 104 -89 45 -46 90 -84 100 -84 30 0 63 -29 63
-56 0 -24 14 -32 25 -14 9 15 25 12 25 -4 0 -20 27 -41 32 -25 7 21 54 -21 83
-73 32 -58 17 -63 -22 -9 -36 51 -55 62 -88 52 l-28 -7 31 -26 c20 -17 29 -32
26 -44 -3 -12 6 -32 25 -53 17 -19 31 -41 31 -49 0 -7 -20 11 -45 41 -25 31
-45 60 -45 64 0 5 -13 22 -30 38 -29 28 -30 28 -30 7 0 -13 7 -25 15 -28 8 -3
24 -21 36 -40 11 -19 28 -41 36 -49 8 -9 16 -22 17 -29 1 -8 14 -30 29 -50 26
-33 26 -36 9 -36 -11 0 -27 11 -36 25 -9 14 -21 23 -26 20 -5 -3 -10 5 -12 17
-2 13 -9 23 -16 23 -7 0 -16 5 -20 11 -4 6 -15 13 -24 17 -15 5 -15 3 -1 -30
16 -39 55 -77 63 -62 3 4 11 -5 17 -21 8 -23 8 -30 0 -30 -7 0 -21 -14 -32
-30 -14 -21 -27 -29 -44 -27 -19 2 -24 -3 -27 -26 -3 -26 0 -28 22 -23 21 6
24 3 24 -23 0 -34 28 -51 46 -27 6 9 17 16 24 16 10 0 10 -3 1 -14 -9 -11 -6
-18 19 -36 21 -15 30 -29 29 -48 -1 -27 -1 -27 -11 4 -9 28 -14 31 -53 32 -42
2 -42 2 -49 -38 -7 -43 -23 -54 -28 -18 -2 12 -9 23 -17 26 -11 4 -12 -6 -6
-49 4 -30 12 -60 17 -66 8 -10 6 -13 -6 -13 -13 0 -17 -7 -14 -27 2 -20 -2
-29 -14 -31 -10 -2 -18 1 -18 7 0 6 5 11 11 11 5 0 8 4 5 9 -7 10 -25 9 -44
-2 -16 -11 4 -51 21 -40 7 4 7 0 -2 -10 -9 -11 -10 -17 -2 -17 6 0 11 -13 11
-29 0 -38 9 -61 24 -61 13 0 66 -64 66 -79 0 -6 -9 -3 -20 6 -11 10 -20 23
-20 30 0 7 -7 13 -15 13 -8 0 -15 4 -15 9 0 5 -15 11 -34 13 -29 3 -37 -1 -51
-25 -9 -16 -15 -30 -13 -31 20 -17 45 -23 60 -15 13 7 18 6 18 -5 0 -7 -7 -17
-17 -20 -14 -6 -14 -9 5 -26 12 -11 26 -20 32 -20 5 0 10 -7 10 -15 0 -22 -13
-18 -40 10 -25 27 -66 35 -57 11 3 -7 -4 -21 -15 -30 -11 -10 -17 -24 -14 -33
9 -22 -3 -53 -19 -53 -8 0 -20 8 -27 19 -13 18 -50 15 -49 -4 0 -6 -8 -18 -16
-27 -10 -11 -11 -18 -5 -18 6 0 9 -7 6 -15 -4 -8 0 -23 7 -32 11 -13 11 -15 1
-9 -23 14 -41 -12 -32 -44 4 -16 6 -31 3 -34 -3 -3 -1 -12 6 -19 15 -18 5 -44
-20 -52 -10 -4 -19 -13 -19 -21 0 -8 4 -13 8 -10 5 3 9 -1 9 -9 0 -16 2 -17
-86 42 -61 41 -112 60 -83 31 19 -19 14 -33 -5 -17 -10 8 -36 23 -58 34 -22
10 -44 21 -49 23 -4 3 0 -8 10 -24 19 -28 19 -28 -1 -20 -47 19 -55 19 -55 -3
0 -25 -7 -26 -32 -4 -13 12 -38 17 -83 18 -42 0 -70 6 -82 16 -10 9 -33 22
-52 29 -18 7 -45 23 -60 35 -32 26 -111 57 -111 44 0 -5 7 -12 15 -15 8 -4 15
-12 15 -18 0 -10 61 -48 73 -45 13 3 94 -44 127 -74 55 -50 41 -65 -28 -32
-37 18 -73 26 -120 28 -67 3 -92 10 -92 27 0 5 14 4 31 -2 21 -7 34 -7 41 0 6
6 18 8 27 5 12 -3 11 0 -4 12 -11 9 -28 14 -39 11 -25 -7 -63 13 -69 35 -3 11
-13 19 -22 19 -11 0 -15 -5 -12 -15 5 -11 0 -13 -26 -8 -18 3 -45 12 -61 20
-26 14 -28 14 -23 -1 6 -15 0 -16 -48 -12 -58 5 -66 1 -38 -19 9 -7 13 -17 9
-24 -5 -8 -18 -2 -43 19 -35 31 -57 34 -33 5 18 -21 7 -19 -20 5 -13 11 -30
20 -38 20 -13 0 -12 -3 4 -16 18 -15 18 -15 -6 -10 -14 2 -36 8 -50 12 -14 4
-22 4 -18 -1 15 -16 -22 -37 -54 -31 -30 6 -31 5 -14 -12 16 -18 13 -19 -84
-14 -76 3 -100 2 -100 -8 0 -8 -8 -10 -25 -6 -14 4 -25 3 -25 -2 0 -5 -38 -8
-85 -8 -47 1 -85 -2 -85 -6 0 -5 -11 -8 -24 -8 -13 0 -26 -4 -28 -8 -2 -5 -27
-26 -56 -47 -29 -20 -51 -39 -49 -41 2 -2 18 1 37 6 36 10 46 8 36 -9 -4 -6
-13 -8 -21 -5 -15 6 -39 -31 -30 -47 4 -5 2 -16 -4 -23 -7 -8 -10 -20 -9 -27
2 -7 -8 -16 -22 -20 -14 -4 -20 -8 -15 -9 13 -2 -39 -20 -90 -30 -22 -4 -87
-20 -145 -35 -58 -14 -150 -38 -205 -52 -55 -14 -143 -27 -195 -30 -84 -5
-109 -2 -215 26 -169 45 -185 50 -179 65 3 8 -2 16 -11 20 -10 3 -15 12 -11
21 5 15 -25 21 -77 17 -10 -1 -20 5 -23 13 -4 8 -15 15 -25 15 -10 0 -19 5
-19 11 0 5 5 7 10 4 6 -3 10 1 10 10 0 14 -6 16 -27 11 -23 -5 -25 -4 -10 4
30 19 21 39 -15 34 -25 -4 -40 1 -63 20 -16 15 -22 23 -12 20 9 -3 24 -3 33 0
15 6 15 8 -1 26 -10 11 -26 20 -36 20 -9 0 -19 5 -21 11 -2 5 -20 12 -39 13
-20 2 -51 11 -70 19 -32 14 -48 18 -136 34 -18 3 -33 9 -33 13 0 14 -88 23
-119 12 -23 -8 -31 -7 -35 4 -7 19 -72 18 -146 -3 -63 -17 -89 -11 -55 13 19
14 18 15 -12 12 -17 -1 -43 4 -56 11 -20 11 -33 11 -58 2 -44 -15 -64 -15 -51
2 6 7 7 19 3 26 -10 15 -44 1 -71 -30 -17 -20 -89 -69 -101 -69 -5 0 15 23 43
50 50 49 59 72 20 51 -26 -14 -35 -14 -27 -1 16 25 -27 6 -69 -31 -52 -46 -75
-45 -31 1 16 17 26 30 22 30 -10 0 -49 -22 -72 -42 -27 -22 -65 -25 -92 -8
-27 17 -31 60 -7 60 21 0 53 40 54 68 0 16 -6 22 -21 22 -18 0 -19 2 -9 15 9
11 9 19 2 28 -6 7 -9 23 -5 35 3 12 -2 33 -11 46 -9 15 -12 27 -6 31 5 3 7 19
3 35 -4 22 -2 30 8 30 10 1 9 4 -3 14 -18 13 -15 55 6 68 5 4 11 33 12 66 0
32 5 65 10 73 12 19 16 92 6 98 -17 11 -23 61 -9 67 8 3 12 15 9 33 -3 26 13
53 36 63 21 7 22 45 2 66 -12 12 -20 29 -18 36 2 8 -6 22 -17 30 -16 12 -18
17 -7 27 9 10 12 10 12 1 0 -7 5 -12 10 -12 6 0 10 11 10 24 0 13 10 30 23 39
22 16 21 16 -17 16 -22 1 -37 4 -33 7 3 3 21 6 40 6 27 0 37 5 46 24 6 13 8
31 4 39 -3 9 2 22 13 30 18 14 18 15 -3 21 -12 3 -25 15 -29 26 -4 13 -12 18
-24 15 -10 -2 -24 -1 -31 4 -9 5 -5 10 15 15 19 4 31 2 37 -7 8 -11 12 -10 24
5 8 11 15 26 15 33 0 7 5 13 10 13 6 0 10 -7 10 -15 0 -8 5 -15 10 -15 14 0
12 17 -5 43 -18 28 -17 113 1 128 8 6 14 17 14 24 0 7 7 16 16 19 13 5 14 9 4
21 -11 13 -9 20 9 38 26 29 28 57 3 57 -43 0 -27 35 19 42 36 5 19 23 -19 21
-18 -1 -31 1 -28 5 3 5 6 27 7 50 l3 41 27 -16 c25 -15 28 -14 48 6 17 17 20
29 16 55 -6 29 -4 34 15 39 15 4 21 11 17 21 -3 8 -2 18 3 21 15 9 12 35 -4
41 -8 3 -25 -4 -37 -15 -13 -11 -25 -18 -28 -15 -3 3 2 12 13 19 11 8 16 21
13 30 -7 18 14 20 30 4 6 -6 17 -8 23 -4 9 6 9 10 -1 17 -10 7 -6 8 14 5 24
-4 28 -2 24 14 -3 11 0 19 6 19 8 0 7 4 -1 12 -18 18 -14 38 8 38 22 0 27 25
8 34 -7 3 2 4 20 3 20 -1 36 4 42 12 7 12 11 13 24 1 20 -16 29 -8 34 28 5 41
28 60 68 57 19 -2 34 1 34 6 0 5 11 7 24 3 22 -5 24 -3 20 18 -5 22 -5 22 10
4 13 -16 13 -22 3 -35 -10 -12 -9 -14 5 -8 10 3 27 -4 43 -19 41 -38 54 -26
51 43 -2 32 -1 52 1 46 3 -7 10 -13 18 -13 7 0 23 -15 35 -32 26 -37 106 -108
122 -108 12 0 -58 90 -80 104 -11 6 -12 10 -2 16 9 6 8 14 -6 36 -18 28 -18
28 -1 15 15 -12 20 -12 27 -2 5 9 10 10 14 2 11 -18 26 -13 26 9 0 25 8 25 27
3 13 -16 14 -16 10 -1 -11 35 4 31 54 -15z m2125 22 c8 -14 -20 -10 -41 5 -18
13 -18 14 8 9 15 -3 30 -9 33 -14z m304 -20 c0 -14 -27 -10 -33 5 -4 10 0 12
14 9 10 -3 19 -9 19 -14z m227 15 c-3 -3 -12 -4 -19 -1 -8 3 -5 6 6 6 11 1 17
-2 13 -5z m-560 -20 c-3 -3 -12 -4 -19 -1 -8 3 -5 6 6 6 11 1 17 -2 13 -5z
m1610 -6 c6 -5 10 -15 7 -22 -3 -7 2 -19 11 -26 8 -7 15 -17 15 -23 0 -6 10
-21 22 -34 12 -13 18 -26 14 -30 -4 -4 -12 1 -18 12 -6 10 -22 29 -35 41 -12
11 -26 35 -29 52 -4 21 -11 29 -20 25 -8 -3 -14 -1 -14 4 0 13 32 13 47 1z
m153 -151 c0 -6 -11 0 -25 13 -14 13 -25 28 -25 33 0 6 11 0 25 -13 14 -13 25
-28 25 -33z m-125 -7 c3 -5 1 -10 -4 -10 -6 0 -11 5 -11 10 0 6 2 10 4 10 3 0
8 -4 11 -10z m-4495 -120 c0 -5 -4 -10 -10 -10 -5 0 -10 5 -10 10 0 6 5 10 10
10 6 0 10 -4 10 -10z m1940 -110 c0 -14 -28 -1 -34 16 -4 12 -2 12 14 4 11 -6
20 -15 20 -20z m815 20 c3 -5 -1 -10 -9 -10 -9 0 -16 5 -16 10 0 6 4 10 9 10
6 0 13 -4 16 -10z m-250 -10 c-3 -5 -10 -10 -16 -10 -5 0 -9 5 -9 10 0 6 7 10
16 10 8 0 12 -4 9 -10z m-540 -20 c3 -5 1 -10 -4 -10 -6 0 -11 5 -11 10 0 6 2
10 4 10 3 0 8 -4 11 -10z m565 -6 c0 -8 -5 -12 -10 -9 -6 4 -8 11 -5 16 9 14
15 11 15 -7z m-490 -24 c0 -14 -14 -12 -28 2 -19 19 -14 30 8 18 11 -6 20 -15
20 -20z m390 14 c0 -2 -7 -4 -15 -4 -8 0 -15 4 -15 10 0 5 7 7 15 4 8 -4 15
-8 15 -10z m58 -24 c22 -11 47 -20 54 -20 7 0 21 -7 31 -14 23 -18 5 -31 -23
-16 -27 15 -45 3 -25 -16 8 -9 13 -20 10 -25 -8 -12 -42 -11 -50 1 -4 6 -14 8
-23 5 -11 -3 -22 3 -30 15 -7 11 -8 20 -3 20 6 0 13 -4 16 -10 9 -15 25 -12
25 5 0 9 6 12 15 9 27 -11 16 14 -15 33 -16 9 -30 21 -30 25 0 11 1 11 48 -12z
m-108 -20 c0 -5 7 -10 15 -10 8 0 15 -4 15 -10 0 -17 -26 -11 -45 10 -16 18
-16 20 -2 20 10 0 17 -4 17 -10z m-604 -28 c-4 -3 -14 2 -24 12 -16 18 -16 18
6 6 13 -6 21 -14 18 -18z m158 13 c11 -8 16 -18 13 -22 -4 -3 -16 3 -27 15
-23 25 -15 29 14 7z m149 1 c3 -8 3 -17 0 -20 -9 -9 -34 15 -27 25 8 13 21 11
27 -5z m27 -35 c0 -5 16 -19 36 -30 20 -12 34 -24 31 -27 -9 -9 -98 47 -91 57
7 12 24 12 24 0z m225 -11 c3 -5 -1 -10 -9 -10 -9 0 -16 5 -16 10 0 6 4 10 9
10 6 0 13 -4 16 -10z m340 0 c3 -5 -1 -10 -9 -10 -8 0 -18 5 -21 10 -3 6 1 10
9 10 8 0 18 -4 21 -10z m-612 -36 c20 -13 37 -29 37 -34 0 -15 -16 -12 -34 5
-8 8 -23 15 -33 15 -22 0 -63 27 -63 42 0 15 49 1 93 -28z m170 8 c29 -25 19
-35 -13 -12 -16 12 -30 26 -30 31 0 11 16 4 43 -19z m370 13 c-4 -15 -36 -12
-41 3 -3 9 3 13 19 10 13 -1 23 -7 22 -13z m-693 -30 c0 -8 5 -15 10 -15 6 0
10 -5 10 -12 0 -6 -9 -3 -20 7 -22 20 -26 35 -10 35 6 0 10 -7 10 -15z m-65
-5 c3 -5 2 -10 -4 -10 -5 0 -13 5 -16 10 -3 6 -2 10 4 10 5 0 13 -4 16 -10z
m1940 -65 c28 -7 42 -14 32 -14 -10 -1 -15 -5 -12 -11 10 -16 -31 -12 -70 7
-67 32 -38 43 50 18z m-3911 -190 c-4 -8 -10 -15 -15 -15 -5 0 -9 7 -9 15 0 8
7 15 15 15 9 0 12 -6 9 -15z m4680 -277 c27 -38 18 -54 -9 -18 -28 38 -29 40
-16 40 6 0 17 -10 25 -22z m-97 -100 c-3 -8 -6 -5 -6 6 -1 11 2 17 5 13 3 -3
4 -12 1 -19z m124 -9 c-8 -22 -10 -22 -16 -5 -5 11 -3 21 6 26 19 12 21 7 10
-21z m46 -44 c9 -24 -1 -27 -15 -5 -8 13 -8 20 -2 20 6 0 13 -7 17 -15z m-100
-87 c-3 -8 -6 -5 -6 6 -1 11 2 17 5 13 3 -3 4 -12 1 -19z m-17 -18 c0 -10 3
-26 7 -36 4 -12 2 -15 -8 -12 -8 3 -13 13 -12 24 1 10 -3 26 -8 36 -7 14 -6
16 6 12 8 -4 15 -14 15 -24z m-30 -10 c0 -5 -4 -10 -10 -10 -5 0 -10 5 -10 10
0 6 5 10 10 10 6 0 10 -4 10 -10z m80 -10 c0 -5 -4 -10 -10 -10 -5 0 -10 5
-10 10 0 6 5 10 10 10 6 0 10 -4 10 -10z m227 -72 c-3 -7 -5 -2 -5 12 0 14 2
19 5 13 2 -7 2 -19 0 -25z m-252 -8 c3 -5 1 -10 -4 -10 -6 0 -11 5 -11 10 0 6
2 10 4 10 3 0 8 -4 11 -10z m-28 -92 c-3 -8 -6 -5 -6 6 -1 11 2 17 5 13 3 -3
4 -12 1 -19z m-18 -8 c19 -17 22 -27 18 -58 -3 -20 -3 -29 -1 -19 8 25 26 21
22 -5 -2 -15 -10 -23 -23 -23 -15 0 -21 8 -23 33 -3 27 -7 32 -23 27 -20 -7
-28 18 -9 30 5 3 7 12 3 20 -7 21 7 18 36 -5z m141 -71 c0 -6 -4 -7 -10 -4 -5
3 -10 11 -10 16 0 6 5 7 10 4 6 -3 10 -11 10 -16z m-224 -156 c-10 -10 -19 5
-10 18 6 11 8 11 12 0 2 -7 1 -15 -2 -18z m31 -5 c-3 -8 -6 -5 -6 6 -1 11 2
17 5 13 3 -3 4 -12 1 -19z m0 -70 c-3 -8 -6 -5 -6 6 -1 11 2 17 5 13 3 -3 4
-12 1 -19z m-117 -23 c0 -8 -7 -15 -15 -15 -9 0 -12 6 -9 15 4 8 10 15 15 15
5 0 9 -7 9 -15z m157 -137 c-3 -8 -6 -5 -6 6 -1 11 2 17 5 13 3 -3 4 -12 1
-19z m-7 -108 c0 -5 -2 -10 -4 -10 -3 0 -8 5 -11 10 -3 6 -1 10 4 10 6 0 11
-4 11 -10z m-30 -40 c0 -5 -4 -10 -10 -10 -5 0 -10 5 -10 10 0 6 5 10 10 10 6
0 10 -4 10 -10z m1190 -65 c9 -6 21 -22 27 -37 11 -24 16 -26 48 -21 28 4 35
2 35 -11 0 -9 -4 -16 -10 -16 -5 0 -10 5 -10 10 0 20 -18 9 -24 -15 -4 -14
-14 -25 -23 -25 -16 0 -63 -47 -168 -166 -27 -31 -110 -118 -184 -193 -74 -75
-141 -149 -150 -165 -9 -17 -21 -31 -27 -33 -15 -5 -26 38 -14 52 5 6 5 16 1
23 -10 16 -3 144 10 205 7 28 19 51 30 58 10 5 19 19 19 29 0 24 8 25 32 3 25
-22 31 -12 14 21 -16 32 -10 66 12 66 22 0 82 48 82 67 0 10 6 13 16 9 18 -7
46 20 65 64 11 24 27 34 117 78 21 10 85 8 102 -3z m-1475 -4 c3 -5 1 -12 -5
-16 -5 -3 -10 1 -10 9 0 18 6 21 15 7z m-4065 -15 c0 -3 -4 -8 -10 -11 -5 -3
-10 -1 -10 4 0 6 5 11 10 11 6 0 10 -2 10 -4z m3106 -16 c25 -12 42 -25 39
-30 -6 -10 -94 30 -95 43 0 11 7 9 56 -13z m-3116 -15 c0 -7 -82 -60 -115 -74
-37 -16 -25 -4 44 43 49 33 71 43 71 31z m3080 -5 c0 -5 -2 -10 -4 -10 -3 0
-8 5 -11 10 -3 6 -1 10 4 10 6 0 11 -4 11 -10z m150 -10 c0 -5 -2 -10 -4 -10
-3 0 -8 5 -11 10 -3 6 -1 10 4 10 6 0 11 -4 11 -10z m874 -8 c6 -9 -33 -46
-41 -39 -7 7 16 47 27 47 5 0 11 -4 14 -8z m-4113 -41 c-38 -29 -131 -81 -131
-73 0 9 131 92 144 92 6 0 0 -9 -13 -19z m3318 -11 c27 -10 59 -24 70 -32 20
-14 19 -15 -17 -12 -20 1 -48 2 -62 3 -14 1 -52 17 -85 37 l-60 35 53 -7 c29
-3 75 -14 101 -24z m107 7 c30 -13 114 -67 114 -73 0 -2 -12 -4 -28 -4 -16 0
-49 16 -79 38 -68 49 -71 68 -7 39z m264 4 c0 -5 10 -12 23 -14 16 -3 14 -5
-10 -6 -31 -1 -49 10 -36 23 9 9 23 7 23 -3z m2243 -26 c-3 -9 -8 -14 -10 -11
-3 3 -2 9 2 15 9 16 15 13 8 -4z m-2283 -30 c13 -14 19 -25 12 -25 -6 0 -12 4
-12 9 0 5 -9 7 -20 4 -21 -6 -80 14 -80 27 0 30 64 20 100 -15z m-425 0 l30
-13 -40 5 c-22 3 -44 10 -49 14 -15 14 25 10 59 -6z m500 -15 c-3 -5 -13 -10
-21 -10 -8 0 -12 5 -9 10 3 6 13 10 21 10 8 0 12 -4 9 -10z m-315 -15 c46 -10
55 -16 39 -27 -10 -7 -8 -8 6 -3 23 9 49 9 84 0 39 -10 5 -25 -57 -25 -38 0
-54 4 -58 15 -4 8 -17 15 -29 15 -13 0 -26 4 -30 10 -3 5 -12 7 -20 3 -8 -3
-15 -1 -15 4 0 16 12 24 29 19 9 -3 32 -8 51 -11z m462 -28 c50 -18 58 -27 22
-26 -42 1 -77 13 -82 27 -5 15 13 15 60 -1z m2047 -64 c1 -7 -3 -13 -9 -13 -5
0 -10 17 -9 38 1 33 2 34 9 12 4 -14 8 -31 9 -37z m-3647 22 c-2 -14 -8 -25
-13 -25 -10 0 -11 12 -3 34 10 25 22 19 16 -9z m33 -5 c-5 -8 -11 -8 -17 -2
-6 6 -7 16 -3 22 5 8 11 8 17 2 6 -6 7 -16 3 -22z m1378 13 c47 -4 65 -9 58
-16 -11 -11 -181 -11 -216 0 -17 5 -15 8 15 19 19 7 44 11 55 8 11 -2 51 -7
88 -11z m195 -16 c21 -17 -11 -29 -43 -17 -15 6 -30 8 -35 5 -4 -3 -13 1 -19
9 -9 11 -9 15 1 19 19 6 81 -4 96 -16z m-531 7 c-3 -3 -12 -4 -19 -1 -8 3 -5
6 6 6 11 1 17 -2 13 -5z m-430 -10 c-3 -3 -12 -4 -19 -1 -8 3 -5 6 6 6 11 1
17 -2 13 -5z m160 0 c-3 -3 -12 -4 -19 -1 -8 3 -5 6 6 6 11 1 17 -2 13 -5z
m-758 -45 c-16 -10 -23 -4 -14 10 3 6 11 8 17 5 6 -4 5 -9 -3 -15z m101 11
c-14 -4 -36 -8 -50 -8 -22 0 -22 1 5 8 17 4 39 8 50 8 16 0 15 -2 -5 -8z
m1567 4 c-3 -3 -12 -4 -19 -1 -8 3 -5 6 6 6 11 1 17 -2 13 -5z m-1737 -24 c-8
-5 -24 -9 -35 -9 -16 1 -16 2 5 9 35 11 48 11 30 0z m3280 -30 c0 -10 8 -32
18 -49 14 -26 15 -34 4 -51 -13 -22 -16 -97 -8 -227 0 -12 4 -25 9 -29 4 -4 7
-21 7 -39 0 -17 5 -36 10 -41 6 -6 13 -57 17 -115 9 -132 9 -128 -12 -229 -9
-47 -17 -96 -16 -110 2 -79 -1 -109 -16 -140 -24 -55 -78 -132 -117 -169 -37
-35 -44 -55 -26 -66 22 -14 126 83 165 154 11 20 23 38 26 41 19 17 95 282
108 380 6 41 14 98 18 125 4 28 7 57 8 65 1 8 4 22 7 30 4 8 9 49 11 91 3 41
12 89 21 107 9 17 16 39 16 50 0 10 11 41 25 68 14 27 23 54 21 60 -2 6 0 17
5 25 8 12 10 12 18 -1 5 -8 6 -20 2 -28 -5 -9 -2 -28 8 -46 8 -17 15 -48 14
-68 0 -26 4 -38 13 -38 10 0 15 16 16 58 1 31 2 71 3 87 1 17 2 45 3 63 2 30
4 32 22 22 11 -6 24 -9 28 -6 13 8 5 -207 -9 -239 -7 -16 -11 -33 -11 -38 4
-17 -22 -105 -42 -142 -12 -22 -32 -74 -45 -115 -14 -41 -30 -89 -38 -107 -7
-17 -13 -40 -13 -50 0 -10 -4 -23 -8 -29 -4 -5 -18 -36 -30 -69 -13 -33 -34
-82 -47 -110 -29 -59 -48 -106 -50 -120 -5 -29 -19 -72 -29 -85 -21 -28 -36
-60 -36 -75 0 -8 -7 -15 -15 -15 -8 0 -15 -4 -15 -10 0 -12 -43 -78 -68 -105
-11 -11 -22 -28 -26 -39 -3 -10 -12 -16 -21 -13 -8 4 -16 -1 -19 -11 -3 -9
-18 -26 -33 -37 -15 -11 -56 -48 -91 -83 -71 -71 -139 -113 -151 -93 -4 7 -14
11 -22 9 -11 -2 -13 7 -11 36 3 34 17 66 45 101 51 65 127 178 127 189 0 8
-13 26 -30 39 -16 14 -30 28 -30 31 0 14 -45 56 -60 56 -31 0 -29 -12 6 -45
36 -34 42 -59 21 -84 -8 -9 -19 -32 -26 -51 -25 -68 -34 -79 -95 -111 -33 -17
-82 -47 -108 -65 -27 -19 -48 -30 -48 -25 0 5 -10 11 -22 14 -20 6 -21 9 -14
104 6 95 7 99 38 123 18 14 42 34 54 45 27 26 97 65 118 65 9 0 16 5 16 11 0
7 -11 8 -30 4 -38 -8 -47 10 -30 61 14 41 14 178 0 234 -7 29 -8 22 -9 -42 -1
-42 -6 -90 -13 -105 -10 -25 -132 -153 -145 -153 -3 0 -2 42 2 93 5 50 8 139
7 196 0 57 3 111 8 120 4 9 13 29 19 44 l11 28 30 -18 c17 -9 30 -21 30 -25 0
-4 4 -8 9 -8 5 0 5 12 -1 28 -10 26 -7 35 25 84 21 30 37 63 37 72 0 26 29 31
66 11 18 -10 39 -15 47 -12 8 3 20 1 28 -4 10 -6 5 -9 -17 -9 -19 0 -34 -6
-37 -15 -7 -16 8 -29 22 -21 5 3 14 -1 21 -9 9 -11 16 -12 25 -5 10 8 22 3 46
-20 38 -35 45 -36 53 -14 9 24 -14 46 -41 41 -17 -3 -23 0 -23 14 0 11 -5 19
-11 19 -6 0 -3 7 5 16 9 8 20 13 26 9 6 -3 7 0 4 9 -3 9 -9 15 -12 14 -20 -2
-27 4 -28 25 -1 12 -3 38 -5 57 -1 19 3 47 11 62 12 25 11 31 -13 64 -16 24
-23 43 -19 55 6 15 92 112 195 220 15 16 27 33 27 38 0 5 14 14 30 21 17 7 30
17 30 22 0 6 7 5 15 -2 8 -7 15 -21 15 -30z m-1780 11 c25 -5 -99 -6 -275 -3
-176 3 -331 9 -345 14 -31 10 558 0 620 -11z m-881 -45 c-2 -2 -56 -6 -119 -8
-64 -3 -91 -2 -60 2 62 8 186 12 179 6z m2158 -33 c9 -125 9 -134 -8 -149 -15
-13 -17 -11 -23 37 -6 42 -4 54 11 66 13 10 15 16 6 19 -16 7 -17 26 -1 42 7
7 12 12 13 12 0 0 1 -12 2 -27z m-2424 10 c-13 -2 -33 -2 -45 0 -13 2 -3 4 22
4 25 0 35 -2 23 -4z m-138 -13 c-16 -4 -43 -8 -60 -8 -29 1 -29 1 5 8 19 4 46
7 60 8 22 0 22 -1 -5 -8z m-182 -27 c-7 -2 -19 -2 -25 0 -7 3 -2 5 12 5 14 0
19 -2 13 -5z m507 -90 c1 -51 21 -103 61 -163 l34 -49 73 -1 c62 0 72 2 72 17
0 15 2 14 15 -3 13 -19 20 -20 65 -13 61 10 81 15 143 41 36 16 46 25 42 38
-5 17 21 80 33 80 4 0 16 -7 26 -15 16 -12 17 -18 8 -27 -21 -21 -13 -31 19
-24 42 8 34 -15 -9 -26 -57 -15 -36 -29 41 -28 114 3 184 -6 227 -29 50 -26
62 -26 32 -1 -13 11 -18 21 -12 25 7 4 7 12 0 26 -6 10 -9 19 -7 19 14 0 74
-26 85 -37 7 -7 23 -13 35 -13 16 0 7 9 -30 29 -29 16 -59 36 -68 44 -8 9 -23
18 -33 21 -9 3 -24 19 -34 35 l-16 29 36 -13 c66 -24 117 -47 132 -60 18 -15
59 -13 69 4 4 6 15 9 24 5 12 -4 17 -1 17 11 0 15 1 15 16 1 8 -9 20 -16 25
-16 5 0 9 -7 9 -15 0 -9 9 -15 24 -15 43 0 55 -11 88 -78 27 -57 32 -79 35
-152 1 -47 5 -106 9 -132 4 -28 3 -48 -3 -48 -5 0 -7 -15 -5 -34 4 -38 -31
-193 -55 -240 -44 -88 -115 -138 -239 -170 -401 -101 -1259 -100 -1480 3 -96
45 -164 147 -241 361 -53 149 -73 200 -109 277 -35 75 -40 93 -26 93 5 0 7 14
4 31 -3 20 -9 29 -18 25 -8 -3 -14 1 -14 9 0 8 4 15 8 15 5 0 14 16 22 35 8
19 19 35 26 35 7 0 19 9 27 21 9 13 17 16 22 10 3 -6 13 -11 21 -11 8 0 13 4
10 8 -3 5 8 9 25 10 30 1 30 0 14 -24 -15 -23 -14 -25 2 -31 9 -4 18 -2 20 4
2 6 14 23 27 38 20 24 30 27 85 26 73 0 95 -15 85 -58 -6 -26 -4 -25 31 15 30
34 43 43 62 39 15 -3 23 0 20 7 -3 6 6 12 20 12 22 2 24 -1 18 -28 -4 -17 -17
-45 -30 -64 -40 -59 -42 -148 -3 -117 7 5 33 11 58 12 25 1 49 6 54 11 5 5 14
6 21 3 10 -3 12 2 8 17 -3 12 -12 24 -19 27 -23 8 -18 64 6 70 11 3 20 12 20
19 0 8 17 32 38 53 39 40 87 58 165 60 36 1 37 0 37 -36z m253 23 c3 -8 3 -16
0 -19 -9 -10 -33 5 -33 19 0 18 26 18 33 0z m-1368 -11 c-47 -20 -95 -28 -95
-16 0 6 12 13 28 17 15 3 32 7 37 9 6 2 21 3 35 3 24 0 24 0 -5 -13z m-1365
-28 c8 -7 16 -25 17 -42 1 -16 16 -56 32 -90 16 -33 30 -64 30 -69 -1 -5 5
-12 12 -17 15 -9 11 -16 -11 -20 -24 -4 -132 23 -168 43 -18 10 -37 16 -42 13
-4 -3 -10 1 -13 8 -4 10 2 13 19 9 29 -5 31 9 4 26 -30 18 -16 58 38 110 48
45 58 48 82 29z m310 -7 c0 -13 -5 -18 -15 -14 -8 4 -15 12 -15 20 0 8 7 14
15 14 8 0 15 -9 15 -20z m1648 -7 c-10 -2 -28 -2 -40 0 -13 2 -5 4 17 4 22 1
32 -1 23 -4z m-1345 -54 c12 -6 32 -22 43 -35 20 -23 21 -26 6 -70 l-15 -47
-65 6 c-75 7 -93 18 -70 44 8 10 23 36 33 58 15 34 31 54 43 55 2 0 13 -5 25
-11z m1575 -74 c0 -44 -1 -45 -26 -39 -44 9 -52 13 -52 23 0 17 32 42 47 37 8
-3 11 -1 8 4 -3 6 -3 15 0 20 12 20 22 0 23 -45z m-88 -40 c0 -8 -4 -15 -9
-15 -13 0 -22 16 -14 24 11 11 23 6 23 -9z m-1684 -28 c41 4 58 2 64 -7 6 -9
38 -16 93 -19 46 -3 90 -11 98 -17 24 -18 63 -11 74 14 5 12 13 22 18 22 4 0
5 5 1 11 -11 18 28 -6 51 -31 15 -17 19 -35 18 -86 0 -36 -6 -85 -13 -109 -7
-24 -10 -58 -8 -74 2 -17 1 -28 -4 -25 -4 3 -8 -4 -8 -15 0 -12 7 -21 15 -21
21 0 19 -23 -12 -118 -41 -126 -104 -247 -129 -247 -12 0 -27 -6 -36 -12 -127
-105 -804 -131 -1243 -47 -124 24 -216 59 -129 49 21 -2 31 -2 22 1 -10 3 -19
10 -19 15 -4 26 -21 63 -33 71 -7 5 -7 8 2 8 17 0 15 17 -5 39 -49 53 -55 74
-27 85 11 4 13 10 7 19 -5 6 -10 26 -11 43 -2 24 3 32 25 41 26 10 26 11 6 12
-28 1 -30 17 -3 33 11 7 20 17 20 23 0 6 14 16 30 22 24 9 30 17 30 42 0 25
-4 31 -22 31 -18 1 -15 5 16 20 21 11 48 17 60 14 28 -6 52 28 32 45 -10 9
-15 7 -19 -10 -5 -17 -9 -19 -25 -10 -14 7 -24 6 -40 -5 -11 -8 -23 -11 -26
-6 -7 12 10 36 21 29 5 -3 25 4 44 15 42 27 104 34 95 12 -3 -7 -1 -14 4 -14
5 0 12 -11 16 -25 6 -25 24 -35 24 -14 0 5 4 8 9 4 18 -10 34 31 20 50 -4 6
-5 30 -2 54 l6 43 36 -7 c20 -4 55 -7 79 -7 23 0 42 -4 42 -9 0 -14 68 -4 88
14 10 9 26 17 35 17 9 0 19 5 22 10 8 13 65 13 65 1 0 -5 -5 -11 -10 -13 -11
-3 -41 -80 -35 -87 3 -2 16 11 30 28 15 17 32 31 38 31 7 -1 5 -6 -4 -13 -8
-7 -19 -21 -23 -31 -6 -18 -5 -19 11 -4 10 8 23 14 29 11 6 -2 17 3 24 12 7 8
24 15 38 15 24 0 24 -1 9 -18 -10 -10 -17 -24 -17 -30 0 -18 27 -14 42 6 7 10
20 22 28 27 11 6 10 3 -2 -12 -10 -11 -18 -24 -18 -30 0 -14 28 -25 35 -14 3
5 15 7 26 4 19 -5 21 -3 16 19 -5 20 0 29 24 47 43 32 57 21 21 -16 -30 -30
-32 -43 -5 -43 7 0 13 6 13 13 0 7 9 23 20 35 11 12 20 25 20 31 0 11 -24 21
-51 21 -12 0 -17 4 -13 11 4 6 31 10 68 8 108 -4 123 -1 130 24 6 19 7 20 16
5 8 -13 20 -15 66 -11z m957 -21 c36 -24 58 -68 92 -186 15 -52 31 -102 36
-111 12 -23 0 -59 -17 -52 -9 3 -14 -2 -14 -14 0 -24 19 -43 36 -36 9 3 14 -1
14 -12 0 -9 -4 -14 -9 -11 -5 4 -7 -12 -3 -36 4 -30 15 -52 36 -73 l31 -29
-27 -6 c-21 -4 -25 -9 -19 -19 12 -19 3 -41 -16 -41 -13 0 -13 -3 -3 -15 7 -8
18 -15 25 -15 7 0 16 -7 19 -16 3 -9 12 -14 19 -11 7 3 22 -2 32 -10 19 -15
19 -15 -2 -8 -17 5 -23 2 -23 -10 0 -12 6 -15 19 -10 15 4 20 0 23 -16 3 -25
28 -39 28 -16 0 14 20 27 41 27 22 0 7 -39 -18 -48 -24 -8 -26 -11 -10 -17 10
-4 23 -3 28 2 7 7 25 3 55 -13 47 -25 74 -30 74 -14 0 5 13 1 30 -8 16 -9 30
-21 30 -25 0 -5 4 -6 9 -3 4 3 26 -3 47 -13 131 -62 486 -96 910 -87 150 3
278 8 285 10 8 3 55 7 104 11 205 13 372 51 438 99 21 15 30 17 39 8 18 -18
28 -15 28 9 0 12 20 57 45 101 25 44 45 86 45 93 0 8 5 17 10 20 6 3 10 20 10
37 0 24 3 29 17 24 9 -4 20 -1 25 6 5 9 8 6 8 -9 0 -12 9 -27 21 -33 16 -9 19
-18 14 -37 -5 -21 -3 -24 15 -18 14 5 20 2 20 -9 0 -9 -4 -16 -10 -16 -11 0
-7 -121 5 -140 4 -6 1 -18 -6 -26 -10 -13 -10 -17 2 -25 9 -6 10 -12 4 -16 -6
-5 -12 -30 -13 -57 -2 -37 0 -47 11 -43 7 3 24 -6 37 -20 21 -22 22 -24 4 -21
-18 3 -19 -3 -17 -87 1 -49 4 -110 7 -135 3 -27 1 -47 -6 -51 -6 -4 -13 -21
-14 -38 -3 -24 -1 -29 12 -24 14 5 14 3 -1 -26 -10 -21 -22 -31 -31 -27 -16 6
-19 -5 -5 -19 6 -6 6 -27 0 -55 -6 -25 -12 -52 -14 -60 -2 -8 -4 -17 -6 -20
-4 -9 -7 -25 -8 -47 0 -13 -7 -23 -14 -23 -18 0 -37 -63 -25 -84 5 -9 5 -16 0
-16 -13 0 -32 -47 -32 -80 0 -17 -3 -29 -7 -29 -5 1 -11 0 -15 -1 -5 -1 -13
-3 -20 -4 -6 0 -13 -7 -16 -15 -3 -10 0 -12 11 -8 9 3 19 2 22 -3 4 -6 1 -10
-4 -10 -6 0 -11 -11 -11 -25 0 -22 -3 -24 -32 -19 -18 3 -39 8 -46 10 -16 5
-30 -28 -14 -34 7 -2 12 -8 12 -12 0 -5 -12 -2 -27 6 -44 22 -59 17 -29 -11
37 -35 34 -75 -5 -54 -13 7 -19 6 -19 -1 0 -7 -8 -9 -21 -5 -18 6 -20 4 -14
-14 4 -12 2 -21 -4 -21 -15 0 -70 -61 -71 -77 0 -7 12 -13 26 -13 19 0 25 4
20 15 -3 10 1 15 13 15 11 0 28 12 38 26 13 17 26 25 39 22 19 -5 18 -5 -1
-13 -11 -5 -26 -17 -33 -27 -7 -10 -19 -18 -26 -18 -7 0 -18 -12 -25 -27 -9
-20 -14 -24 -21 -14 -6 10 -9 8 -15 -8 -8 -25 -20 -27 -29 -5 -11 28 -28 3
-23 -34 7 -38 -12 -86 -38 -95 -8 -4 -15 -18 -15 -32 0 -17 -7 -29 -22 -35
-18 -7 -19 -9 -5 -9 21 -1 22 -14 3 -31 -11 -8 -12 -18 -6 -35 10 -25 -10 -52
-30 -40 -17 11 -68 -26 -63 -46 7 -24 -35 -69 -46 -50 -9 15 -31 7 -31 -11 0
-6 6 -16 14 -22 22 -17 25 -51 4 -50 -22 2 -22 -3 -3 -22 17 -17 20 -44 5 -44
-5 0 -10 7 -10 15 0 8 -9 15 -20 15 -17 0 -20 -7 -20 -40 0 -44 -8 -48 -46
-23 -25 16 -27 16 -36 0 -5 -9 -18 -17 -28 -17 -23 0 -60 -29 -60 -47 0 -6 -8
-18 -18 -25 -11 -7 -21 -20 -24 -28 -3 -10 -6 -8 -10 8 -4 12 -3 20 2 17 9 -6
24 44 15 53 -3 3 -5 0 -5 -6 0 -7 -5 -12 -10 -12 -7 0 -7 6 0 19 12 22 -2 36
-25 27 -17 -6 -18 -2 -9 43 4 17 10 31 15 31 5 0 6 -7 3 -15 -4 -9 0 -15 9
-15 15 0 33 47 22 58 -3 3 -5 0 -5 -7 0 -9 -5 -9 -20 -1 -10 6 -17 17 -14 24
3 8 1 17 -5 21 -7 3 -8 17 -4 33 6 25 5 26 -13 12 -10 -8 -23 -19 -27 -25 -5
-6 -7 -3 -3 8 9 28 -21 20 -36 -10 -11 -23 -22 -29 -68 -37 -30 -4 -58 -13
-61 -18 -4 -7 -9 -6 -13 1 -8 12 -42 -4 -62 -28 -8 -10 -13 -11 -18 -3 -15 25
-28 12 -22 -20 l6 -33 -19 24 c-11 14 -16 33 -13 45 5 20 5 20 -11 4 -14 -13
-22 -14 -46 -5 -23 8 -28 14 -19 24 6 7 8 22 5 33 -3 12 1 23 10 29 14 7 13
11 -6 30 -27 27 -44 18 -39 -19 4 -26 2 -29 -33 -32 -48 -4 -90 7 -102 27 -7
13 -19 15 -63 9 -41 -5 -63 -2 -89 10 -19 10 -40 14 -46 10 -6 -4 -16 0 -21 7
-7 10 -11 11 -14 2 -4 -8 -17 -7 -47 6 -42 18 -42 18 -74 -7 -31 -23 -33 -23
-33 -5 0 20 -18 43 -33 43 -4 0 -6 -4 -2 -9 3 -6 -4 -15 -15 -21 -22 -12 -27
-1 -8 18 9 9 8 12 -4 12 -11 0 -15 6 -11 19 4 16 0 20 -18 19 -13 -1 -29 -5
-34 -9 -6 -4 -23 -6 -39 -5 -21 3 -30 -1 -33 -15 -3 -10 -14 -21 -25 -25 -15
-5 -17 -8 -7 -20 9 -11 9 -18 1 -26 -9 -9 -15 -4 -23 21 -8 23 -15 29 -22 22
-14 -14 -50 -14 -42 -1 3 6 0 10 -9 10 -8 0 -16 6 -19 13 -3 9 -8 9 -18 1 -16
-12 -128 -13 -147 -1 -7 5 -14 2 -18 -8 -5 -12 -9 -13 -20 -4 -10 8 -14 8 -14
0 0 -6 -9 -11 -19 -11 -11 0 -26 -7 -35 -15 -8 -8 -24 -15 -36 -15 -11 0 -37
-7 -57 -15 -19 -8 -45 -15 -57 -15 -12 0 -27 -5 -34 -12 -9 -9 -16 -7 -32 7
-11 10 -18 21 -15 25 2 4 -6 5 -19 3 -34 -7 -159 59 -188 99 -12 18 -23 35
-23 38 0 3 -7 5 -15 5 -8 0 -15 9 -15 19 0 27 -23 32 -40 10 -24 -32 -23 -33
48 -48 15 -4 27 -11 27 -17 0 -6 -7 -8 -15 -5 -9 3 -18 -1 -21 -9 -4 -8 -17
-15 -30 -15 -25 0 -32 15 -11 24 6 3 0 3 -16 -1 -15 -3 -34 0 -42 7 -12 10
-15 9 -15 -8 0 -12 -5 -24 -12 -28 -20 -13 -58 -11 -58 3 0 7 -7 10 -15 7 -10
-4 -15 0 -15 15 0 17 -6 21 -29 21 -17 0 -33 -5 -36 -10 -10 -16 -55 31 -55
57 0 12 -5 23 -12 25 -8 3 -4 13 10 29 16 17 21 31 17 48 -4 14 -1 27 6 32 10
6 10 11 0 23 -22 26 -42 20 -31 -8 7 -18 5 -28 -6 -37 -13 -11 -14 -9 -8 16 6
23 4 27 -9 22 -13 -5 -16 0 -14 24 2 31 5 32 71 12 13 -3 16 -1 11 7 -5 8 1
20 16 31 19 14 24 28 25 64 2 64 13 72 70 50 46 -17 48 -17 61 0 7 11 13 15
13 9 0 -5 5 -2 11 6 8 11 12 12 16 3 2 -7 13 -13 23 -13 10 0 21 6 24 13 3 6
4 3 1 -8 -7 -29 10 -54 18 -26 6 24 27 29 27 6 0 -11 10 -13 49 -8 48 5 121
-11 121 -27 0 -9 90 -31 101 -24 4 2 10 0 14 -6 6 -10 78 21 90 40 3 5 14 10
23 10 10 0 22 10 27 23 6 12 17 22 25 23 23 1 53 16 74 36 11 10 28 16 38 13
10 -3 26 -7 37 -10 10 -3 24 1 30 9 7 8 19 12 28 9 8 -3 18 -2 22 3 9 14 49
34 66 34 8 0 15 5 15 10 0 6 9 10 20 10 11 0 20 4 20 8 0 5 32 10 71 10 84 2
138 28 187 90 39 48 82 130 82 153 0 11 5 19 10 19 6 0 10 9 10 20 0 11 5 20
11 20 12 0 10 119 -3 165 -4 17 -22 45 -38 64 -17 18 -30 40 -30 47 0 17 -44
64 -60 64 -24 0 -51 42 -45 71 7 29 -4 41 -42 47 -19 2 -23 -2 -24 -25 -2 -27
-2 -27 -6 -3 -3 14 -11 28 -18 32 -7 5 -11 17 -8 28 3 11 0 20 -6 20 -6 0 -11
-9 -11 -21 0 -15 -4 -19 -16 -15 -9 3 -20 6 -25 6 -5 0 -6 20 -2 45 3 28 2 45
-4 45 -6 0 -13 9 -16 20 -3 13 0 20 9 20 18 0 18 24 0 40 -8 6 -16 21 -18 32
-6 39 -24 30 -20 -9 l4 -38 -26 30 c-14 17 -26 33 -26 38 0 4 -9 7 -20 7 -19
0 -24 -10 -21 -37 1 -7 -10 -1 -24 13 -15 15 -23 29 -18 33 20 14 13 121 -8
121 -6 0 -7 -5 -4 -11 4 -5 0 -18 -9 -28 -12 -13 -15 -29 -11 -54 5 -29 3 -37
-9 -37 -9 0 -16 -7 -16 -15 0 -8 4 -15 10 -15 18 0 28 -63 13 -85 -19 -29 -16
-63 8 -75 11 -7 18 -14 15 -17 -9 -9 25 -44 35 -37 5 3 10 -10 11 -28 8 -154
20 -202 65 -245 17 -16 23 -18 23 -8 0 8 6 15 14 15 8 0 12 -7 10 -17 -5 -22
15 -54 23 -36 3 9 10 10 24 3 10 -6 31 -9 46 -8 25 3 29 -2 43 -42 8 -25 19
-47 24 -49 4 -2 2 -7 -5 -12 -12 -8 -11 -11 1 -19 13 -8 12 -10 -2 -10 -25 0
-23 -37 2 -45 21 -7 28 -25 10 -25 -5 0 -10 5 -10 10 0 6 -5 10 -11 10 -5 0
-8 -4 -5 -9 3 -4 -3 -19 -14 -31 -11 -12 -22 -31 -25 -41 -7 -20 -40 -26 -50
-8 -5 7 -13 5 -25 -6 -16 -14 -18 -14 -31 1 -9 11 -23 14 -45 11 -20 -3 -40 0
-53 9 -12 9 -26 12 -32 8 -8 -4 -7 -9 2 -15 10 -6 6 -9 -13 -9 -15 0 -30 -4
-33 -10 -3 -5 -24 -10 -45 -10 -21 0 -45 -7 -53 -15 -8 -8 -34 -15 -57 -17
-37 -2 -45 -6 -54 -31 -9 -24 -16 -28 -39 -24 -25 3 -47 -14 -62 -50 0 -1 -28
-6 -62 -12 -63 -10 -133 0 -133 19 0 5 -31 24 -70 42 -38 18 -70 38 -70 43 0
6 -11 26 -24 46 -22 33 -23 37 -10 74 7 22 14 50 14 63 0 13 4 32 10 42 5 10
15 79 21 152 22 266 21 261 36 280 14 18 23 58 13 58 -5 0 -2 21 6 48 16 50
20 68 30 120 3 18 11 35 16 38 6 4 7 -2 3 -16 -5 -16 -4 -21 6 -18 8 3 14 10
13 16 -1 7 -2 21 -2 32 -1 12 -9 20 -19 20 -15 0 -15 2 -4 9 12 7 12 13 3 24
-7 7 -9 17 -5 21 8 8 13 28 20 81 3 22 13 45 22 52 13 10 14 15 4 32 -19 31
-16 58 8 64 14 4 20 11 16 21 -3 8 -1 16 6 19 9 3 9 14 1 46 -6 23 -8 43 -4
46 4 2 6 25 5 50 -1 32 3 50 16 61 20 18 15 46 -8 37 -13 -5 -14 0 -8 28 8 37
26 69 37 69 5 0 8 14 8 30 0 19 -5 29 -12 28 -12 -3 -13 11 -7 89 2 25 35 59
64 65 11 3 61 4 110 4 71 -1 96 -5 118 -20z m2643 -26 c21 0 41 -47 26 -62 -7
-7 -12 -24 -12 -39 0 -14 -9 -47 -20 -72 -19 -43 -18 -83 2 -71 11 7 0 -65
-13 -82 -10 -12 0 -56 11 -49 5 3 11 1 14 -4 3 -5 -3 -11 -13 -14 -13 -3 -21
2 -25 15 -3 13 -10 18 -19 15 -18 -7 -37 11 -30 29 3 8 1 14 -5 14 -32 0 -38
269 -8 312 9 12 16 18 16 13 0 -5 8 1 17 15 l17 23 14 -21 c8 -12 21 -22 28
-22z m-4589 0 c-1 -19 -6 -28 -14 -25 -7 2 -17 -5 -23 -15 -7 -13 -21 -20 -40
-20 -17 0 -33 -7 -39 -17 -7 -12 -13 -15 -20 -8 -13 13 -3 55 14 55 7 0 24 9
38 20 14 11 34 20 45 20 12 0 24 5 27 10 11 17 14 11 12 -20z m-120 4 c-3 -3
-12 -4 -19 -1 -8 3 -5 6 6 6 11 1 17 -2 13 -5z m-104 -11 c-7 -2 -19 -2 -25 0
-7 3 -2 5 12 5 14 0 19 -2 13 -5z m5617 -3 c0 -5 -4 -10 -10 -10 -5 0 -10 5
-10 10 0 6 5 10 10 10 6 0 10 -4 10 -10z m-3959 -152 c-10 -31 -11 -29 -6 16
3 27 6 65 7 85 1 26 3 21 5 -16 2 -28 -1 -66 -6 -85z m-1371 112 c0 -5 -4 -10
-10 -10 -5 0 -10 5 -10 10 0 6 5 10 10 10 6 0 10 -4 10 -10z m-230 -51 c0 -11
-4 -18 -10 -14 -5 3 -7 12 -3 20 7 21 13 19 13 -6z m230 1 c0 -5 -7 -10 -15
-10 -8 0 -15 5 -15 10 0 6 7 10 15 10 8 0 15 -4 15 -10z m4570 -67 c-1 -18
-18 -35 -24 -24 -4 6 -4 16 -1 21 7 12 25 13 25 3z m-3216 -107 c-3 -15 -8
-25 -11 -23 -2 3 -1 17 3 31 3 15 8 25 11 23 2 -3 1 -17 -3 -31z m3109 -127
c-3 -12 0 -25 7 -29 9 -6 7 -10 -9 -15 -24 -7 -56 12 -56 35 0 19 14 30 42 30
17 0 20 -4 16 -21z m77 -28 c0 -5 -9 -7 -20 -4 -11 3 -20 7 -20 9 0 2 9 4 20
4 11 0 20 -4 20 -9z m530 -217 c0 -8 -5 -12 -10 -9 -6 4 -8 11 -5 16 9 14 15
11 15 -7z m-1207 -161 c-7 -2 -19 -2 -25 0 -7 3 -2 5 12 5 14 0 19 -2 13 -5z
m-1256 -9 c-3 -3 -12 -4 -19 -1 -8 3 -5 6 6 6 11 1 17 -2 13 -5z m1140 -10
c-3 -3 -12 -4 -19 -1 -8 3 -5 6 6 6 11 1 17 -2 13 -5z m1322 -87 c1 -10 -3
-15 -9 -12 -5 3 -10 23 -9 43 1 33 2 34 9 12 4 -14 8 -33 9 -43z m-5598 26
c-12 -20 -14 -14 -5 12 4 9 9 14 11 11 3 -2 0 -13 -6 -23z m1595 -8 c8 -21 24
-19 24 3 1 14 4 13 21 -8 12 -14 19 -33 16 -47 -3 -14 1 -23 9 -23 7 0 14 -6
16 -12 5 -15 -13 -70 -25 -79 -5 -3 -9 -10 -9 -15 0 -5 -4 -19 -9 -32 -5 -13
-9 -25 -9 -27 0 -11 -58 -94 -62 -89 -3 2 -11 -10 -18 -28 -7 -18 -19 -40 -26
-48 -6 -8 -14 -40 -17 -70 -8 -81 -19 -131 -34 -160 -18 -35 -16 -50 7 -50 15
0 19 -6 17 -22 -1 -13 -6 -26 -11 -30 -6 -4 -6 -12 1 -20 24 -32 43 -98 33
-122 -7 -20 -4 -29 15 -50 13 -14 20 -28 16 -31 -5 -2 -6 -15 -4 -27 3 -14 -4
-32 -17 -45 -11 -13 -16 -23 -10 -23 15 0 12 -26 -6 -41 -10 -8 -13 -21 -9
-37 5 -22 -3 -39 -51 -101 -8 -10 -35 24 -31 39 2 9 -2 25 -9 35 -12 16 -14
17 -20 2 -7 -20 -24 -22 -24 -3 0 7 -14 16 -32 20 -34 7 -48 -4 -48 -40 0 -17
-38 -67 -41 -53 0 2 -2 15 -5 28 -2 14 1 28 8 33 10 6 10 8 1 8 -7 0 -13 7
-13 16 0 9 -6 14 -12 11 -8 -2 -12 -17 -10 -36 1 -21 -2 -31 -10 -29 -7 1 -26
-6 -42 -17 -21 -14 -31 -16 -34 -7 -6 19 -62 -25 -62 -50 0 -14 -5 -18 -16
-14 -8 3 -22 -1 -30 -9 -12 -12 -20 -12 -53 0 -23 8 -43 10 -52 4 -10 -6 -10
-9 -1 -9 6 0 12 -7 12 -15 0 -19 -19 -20 -26 -1 -3 8 -19 19 -35 25 -22 8 -29
16 -29 36 0 18 -6 29 -20 32 -11 3 -20 13 -20 23 0 10 -10 25 -22 33 -19 13
-20 18 -9 26 11 7 7 12 -16 25 -28 14 -48 41 -45 59 1 4 -5 7 -13 7 -9 0 -15
9 -15 23 0 29 -11 44 -34 48 -24 5 -34 29 -12 29 9 0 16 -4 16 -10 0 -5 11 -9
25 -8 14 1 25 3 25 5 0 1 -12 14 -27 28 -30 27 -58 33 -66 13 -3 -8 -6 -6 -6
4 -1 20 -36 42 -51 33 -6 -4 -10 -3 -9 2 1 4 -3 21 -9 36 -14 33 -15 48 -3 28
6 -9 11 -10 15 -2 4 6 2 11 -4 11 -6 0 -10 6 -9 13 4 33 -2 47 -21 47 -24 0
-25 -8 -6 -29 13 -14 13 -19 0 -35 -14 -20 -14 -20 -14 0 0 12 -12 24 -32 33
-18 8 -41 21 -50 29 -16 13 -16 16 -3 26 13 10 12 16 -6 54 -12 23 -26 42 -31
42 -6 0 -8 6 -5 14 3 8 -2 16 -14 19 -15 4 -19 14 -19 52 0 39 -3 48 -21 52
-18 5 -20 11 -14 42 8 43 8 37 6 84 -1 25 -6 37 -15 37 -20 0 -32 40 -16 50 8
5 10 18 6 34 -4 15 -2 26 4 26 5 0 10 12 10 26 0 16 -4 23 -11 18 -6 -3 -3 5
6 20 10 15 15 37 12 52 -3 20 0 28 14 31 11 3 19 12 19 19 0 8 11 14 28 15 15
1 52 4 82 7 63 6 145 7 500 4 239 -2 392 5 520 27 30 5 60 7 67 4 6 -3 20 0
30 6 25 14 33 14 39 -4z m1104 -89 c0 -21 -17 -29 -47 -21 l-27 6 25 14 c32
18 49 18 49 1z m-110 -10 c0 -11 -19 -15 -25 -6 -3 5 1 10 9 10 9 0 16 -2 16
-4z m-5 -36 c3 -5 1 -10 -4 -10 -6 0 -11 5 -11 10 0 6 2 10 4 10 3 0 8 -4 11
-10z m32 -36 c-3 -3 -12 -4 -19 -1 -8 3 -5 6 6 6 11 1 17 -2 13 -5z m43 -20
c0 -8 -4 -12 -10 -9 -5 3 -10 10 -10 16 0 5 5 9 10 9 6 0 10 -7 10 -16z m3149
-7 c6 -8 8 -17 4 -20 -3 -4 1 -9 9 -12 21 -8 10 -74 -17 -103 l-23 -25 -11 22
c-15 27 -38 27 -46 1 -6 -19 -25 -28 -25 -12 0 4 -3 18 -7 31 -5 20 -3 22 14
17 18 -6 21 -1 28 41 4 26 12 54 17 61 14 16 43 15 57 -1z m-3004 -67 c3 -5 1
-10 -4 -10 -6 0 -11 5 -11 10 0 6 2 10 4 10 3 0 8 -4 11 -10z m2842 -62 c-3
-7 -5 -2 -5 12 0 14 2 19 5 13 2 -7 2 -19 0 -25z m-5355 -53 c2 -19 0 -41 -4
-48 -5 -7 -8 0 -8 20 0 17 -3 38 -6 47 -3 9 -2 16 4 16 5 0 12 -16 14 -35z
m2514 -42 c-8 -8 -36 10 -36 25 0 13 3 12 20 -3 11 -10 18 -20 16 -22z m-48
-41 c2 -7 -3 -12 -12 -12 -9 0 -16 7 -16 16 0 17 22 14 28 -4z m72 -47 c0 -8
-7 -15 -15 -15 -8 0 -15 7 -15 15 0 8 7 15 15 15 8 0 15 -7 15 -15z m-2300
-380 c0 -9 -6 -12 -15 -9 -8 4 -12 10 -9 15 8 14 24 10 24 -6z m1150 -134 c0
-5 -7 -11 -15 -15 -9 -3 -15 0 -15 9 0 8 7 15 15 15 8 0 15 -4 15 -9z m90 -69
c0 -5 -9 -17 -20 -27 -16 -14 -20 -15 -20 -4 0 16 19 39 32 39 4 0 8 -4 8 -8z
m2885 -161 c-3 -6 -11 -11 -16 -11 -5 0 -4 6 3 14 14 16 24 13 13 -3z m-3195
-25 c0 -7 -8 -20 -17 -27 -15 -12 -16 -12 -10 4 4 10 7 23 7 28 0 5 5 9 10 9
6 0 10 -6 10 -14z m-50 -31 c0 -8 5 -15 12 -15 6 0 1 -9 -11 -19 -13 -11 -20
-25 -16 -30 3 -6 2 -11 -4 -11 -18 0 -21 18 -5 31 10 8 13 21 9 36 -3 13 -1
23 5 23 5 0 10 -7 10 -15z m77 -33 c-22 -24 -21 -30 5 -52 19 -15 20 -20 9
-34 -20 -23 -51 -21 -51 5 0 16 -4 19 -20 14 -24 -8 -29 20 -5 29 8 3 15 12
15 20 0 7 11 17 25 20 14 4 25 12 25 18 0 6 3 8 7 5 3 -4 -1 -15 -10 -25z m43
-37 c0 -8 -4 -15 -10 -15 -5 0 -10 7 -10 15 0 8 5 15 10 15 6 0 10 -7 10 -15z
m2904 -250 c-4 -8 -11 -15 -16 -15 -6 0 -5 6 2 15 7 8 14 15 16 15 2 0 1 -7
-2 -15z m-3534 -34 c0 -11 7 -26 15 -35 16 -16 20 -36 7 -36 -15 0 -32 24 -32
45 0 12 -5 26 -12 33 -9 9 -8 12 5 12 10 0 17 -8 17 -19z m3480 -7 c0 -8 -4
-12 -10 -9 -5 3 -10 10 -10 16 0 5 5 9 10 9 6 0 10 -7 10 -16z m-425 -104 c0
-22 -39 -19 -43 3 -3 15 1 18 20 15 12 -2 23 -10 23 -18z m-2987 -30 c-2 -33
-12 -39 -22 -14 -10 27 -7 44 9 44 11 0 15 -9 13 -30z m2507 20 c3 -5 -1 -10
-10 -10 -9 0 -13 5 -10 10 3 6 8 10 10 10 2 0 7 -4 10 -10z m-77 -9 c34 -19
58 -24 111 -26 35 -1 57 -7 65 -17 6 -8 21 -18 34 -22 25 -8 30 -34 8 -42 -22
-9 -7 -36 16 -29 16 6 18 3 12 -22 -7 -26 -6 -27 10 -11 9 10 23 15 31 12 17
-7 19 -20 5 -29 -13 -8 -3 -25 15 -25 8 0 17 15 21 35 4 25 11 35 25 35 11 0
19 5 19 10 0 6 7 10 15 10 8 0 15 9 15 20 0 18 2 19 21 8 17 -10 23 -10 26 0
6 17 30 15 41 -4 8 -14 10 -14 21 0 8 9 20 16 27 16 20 0 17 -27 -6 -50 -11
-11 -20 -25 -20 -32 0 -9 3 -9 12 0 19 19 28 14 28 -12 0 -14 5 -28 10 -31 18
-11 10 -26 -10 -20 -14 4 -22 1 -27 -11 -11 -28 -36 -54 -53 -54 -9 0 -4 -9
15 -24 26 -21 29 -40 7 -41 -20 -1 -102 -39 -102 -47 0 -6 6 -8 14 -5 8 3 17
-1 20 -9 7 -17 -30 -34 -74 -34 -48 0 -67 -68 -24 -84 8 -3 12 -11 9 -16 -8
-14 13 -40 31 -40 10 0 13 7 8 25 -5 18 -2 25 9 25 8 0 17 5 19 11 4 11 38 2
38 -10 0 -4 -11 -14 -25 -21 -26 -14 -35 -36 -11 -27 8 3 16 -2 19 -14 3 -10
2 -19 -3 -19 -4 0 -11 -7 -14 -16 -3 -8 -2 -12 4 -9 16 10 12 -12 -5 -29 -9
-8 -14 -21 -13 -28 2 -7 -3 -12 -9 -10 -7 1 -13 -4 -13 -11 0 -15 -35 -47 -51
-47 -7 0 -9 9 -6 21 3 12 0 22 -8 25 -17 7 -75 -23 -75 -39 -1 -6 -23 -30 -50
-52 -28 -22 -50 -44 -50 -48 0 -5 5 -5 10 -2 6 4 16 3 23 -2 18 -13 52 -10 53
5 1 6 3 24 4 40 2 21 3 23 7 7 3 -11 9 -24 13 -30 9 -12 -16 -75 -30 -75 -5 0
-6 8 -3 17 5 13 2 15 -11 10 -10 -4 -20 -7 -22 -7 -3 0 -3 -4 1 -9 9 -16 -15
-24 -30 -11 -12 10 -15 10 -15 -1 0 -20 -37 -42 -43 -26 -3 7 -6 2 -6 -10 -1
-13 3 -23 8 -23 14 0 0 -42 -21 -64 -22 -24 -22 -30 -3 -49 13 -13 13 -16 -2
-21 -9 -4 -20 -1 -24 5 -4 6 -12 8 -18 5 -6 -4 -11 -1 -11 6 -1 8 -6 6 -15 -6
-13 -18 -41 -14 -30 5 4 5 -1 9 -10 9 -23 0 -31 -31 -12 -45 10 -7 17 -19 17
-26 0 -16 -57 -42 -72 -33 -5 3 -16 -2 -23 -12 -9 -11 -14 -14 -15 -6 0 6 -6
12 -13 12 -22 0 -8 -72 15 -78 16 -4 12 -9 -21 -34 -38 -27 -101 -46 -101 -30
0 4 -15 8 -32 8 -18 1 -27 -1 -20 -3 15 -6 16 -53 1 -53 -6 0 -8 9 -4 20 5 15
2 20 -14 20 -26 0 -36 -17 -20 -36 16 -19 1 -35 -35 -37 -14 -1 -26 -8 -26
-14 0 -7 -7 -13 -16 -13 -11 0 -15 6 -12 18 3 12 -2 24 -14 31 -15 9 -30 8
-78 -10 -33 -12 -60 -26 -60 -30 0 -17 -29 -9 -44 13 -20 28 -20 39 -1 32 17
-7 20 7 4 23 -8 8 -8 17 1 33 10 19 10 24 -4 32 -9 5 -16 18 -16 28 0 11 -4
20 -10 20 -5 0 -10 -4 -10 -10 0 -5 -7 -10 -15 -10 -8 0 -15 -7 -15 -15 0 -8
-4 -15 -10 -15 -5 0 -10 13 -10 29 0 17 5 33 10 36 15 9 12 51 -4 64 -7 6 -21
9 -30 5 -12 -4 -15 -2 -10 9 7 20 -11 30 -35 18 -15 -9 -20 -7 -24 9 -7 28
-37 26 -34 -2 1 -17 -3 -22 -15 -20 -10 2 -18 -2 -18 -8 0 -5 -7 -10 -15 -10
-8 0 -15 9 -15 20 0 13 7 20 20 20 11 0 20 6 20 13 0 21 -12 28 -27 16 -16
-14 -18 2 -2 18 12 12 4 33 -11 33 -5 0 -15 -7 -24 -15 -13 -14 -16 -14 -25 2
-9 17 -73 55 -114 67 -10 3 -17 14 -16 23 3 27 -11 53 -29 53 -13 0 -13 -2 1
-18 22 -24 22 -26 -9 -57 -16 -16 -34 -25 -45 -22 -10 3 -20 -2 -24 -11 -5
-13 -9 -12 -25 6 -11 12 -20 26 -20 32 0 5 -4 10 -10 10 -5 0 -10 7 -10 15 0
13 -3 13 -20 3 -17 -11 -25 -10 -47 2 -25 14 -44 42 -26 39 20 -3 34 2 28 11
-3 6 -17 10 -31 10 -15 0 -27 7 -30 18 -17 53 -25 66 -34 52 -6 -10 -3 -21 7
-32 15 -17 15 -18 -3 -18 -32 0 -44 19 -32 46 8 17 8 31 0 49 -6 14 -8 25 -3
25 5 0 12 11 15 25 8 30 40 49 72 42 16 -3 24 0 24 10 0 9 -10 13 -30 11 -16
-1 -30 -5 -30 -9 0 -4 -6 -9 -14 -12 -9 -4 -13 0 -11 11 2 9 4 20 4 25 1 4 10
7 22 7 11 0 18 4 15 9 -3 4 -17 6 -31 3 -19 -3 -25 0 -25 13 0 13 6 16 23 11
12 -3 34 -6 50 -6 21 0 27 -5 27 -21 0 -22 18 -23 63 -4 12 5 17 3 17 -8 0
-10 7 -13 19 -10 10 3 22 0 26 -7 5 -8 12 -7 24 4 20 18 36 10 46 -23 6 -21 5
-23 -13 -19 -17 5 -20 1 -20 -23 1 -28 28 -51 28 -24 0 8 5 15 10 15 6 0 10
-7 10 -16 0 -9 6 -14 13 -11 6 2 20 0 31 -5 13 -7 16 -7 12 1 -4 7 1 11 12 11
20 0 36 25 27 40 -3 5 -12 7 -20 4 -15 -6 -40 40 -30 56 3 4 -2 13 -9 20 -8 6
-18 25 -21 42 -7 30 -37 68 -54 68 -16 0 8 55 34 80 14 13 22 26 20 30 -3 5 1
10 9 13 9 4 12 0 9 -12 -4 -15 4 -17 62 -16 51 0 70 5 80 18 6 9 15 14 18 10
4 -3 10 2 13 12 4 10 1 21 -7 27 -10 7 -3 8 24 4 22 -3 37 -1 37 5 0 6 6 9 13
6 6 -2 26 4 42 13 21 12 40 14 65 9 23 -5 37 -3 42 4 6 9 8 9 8 0 0 -7 11 -10
28 -8 15 2 27 4 27 5 0 1 7 3 15 5 8 1 27 6 41 10 15 4 30 2 33 -3 7 -11 37
-5 75 14 14 7 28 11 33 8 4 -3 8 0 8 5 0 6 10 11 23 11 13 0 28 5 35 12 9 9
12 9 12 0 0 -7 7 -12 15 -12 9 0 12 6 8 18 -5 13 -3 14 7 5 15 -14 40 -6 40
13 0 8 12 20 28 26 15 7 36 20 47 29 11 9 29 19 40 21 11 2 19 10 18 16 -2 7
2 12 8 12 5 0 7 6 3 13 -6 9 -4 9 8 -1 13 -11 21 -7 49 23 36 38 42 56 22 63
-7 2 -13 -4 -13 -14 0 -16 -26 -43 -42 -44 -5 0 -8 7 -8 15 0 9 6 12 15 9 11
-5 15 1 15 18 0 17 9 29 28 39 15 8 33 20 40 27 16 14 26 15 50 3z m-2396 -45
c4 -19 1 -22 -14 -18 -20 5 -20 5 -12 26 9 23 21 20 26 -8z m2908 20 c0 -3 -4
-8 -10 -11 -5 -3 -10 -1 -10 4 0 6 5 11 10 11 6 0 10 -2 10 -4z m76 -15 c-7
-11 -46 -21 -46 -12 0 13 13 21 32 21 11 0 17 -4 14 -9z m234 -42 c0 -5 -4 -9
-10 -9 -5 0 -10 7 -10 16 0 8 5 12 10 9 6 -3 10 -10 10 -16z m-990 1 c0 -5 -2
-10 -4 -10 -3 0 -8 5 -11 10 -3 6 -1 10 4 10 6 0 11 -4 11 -10z m920 0 c0 -5
-4 -10 -10 -10 -5 0 -10 5 -10 10 0 6 5 10 10 10 6 0 10 -4 10 -10z m-1510
-55 c0 -11 -7 -14 -25 -11 -16 3 -25 0 -25 -8 0 -21 -27 -40 -36 -25 -5 8 -12
3 -21 -15 -14 -27 -37 -37 -27 -11 4 8 1 15 -4 15 -6 0 -13 -9 -17 -19 -3 -10
-15 -21 -25 -24 -22 -6 -70 13 -70 27 0 5 -7 3 -15 -4 -8 -7 -15 -9 -15 -5 0
4 -6 2 -14 -4 -8 -7 -16 -8 -18 -4 -8 15 7 58 20 59 37 3 43 5 38 12 -2 4 29
7 70 7 41 -1 77 2 80 7 3 5 14 6 25 3 11 -4 19 -2 19 4 0 6 14 11 30 11 20 0
30 -5 30 -15z m1330 5 c0 -5 -5 -10 -11 -10 -5 0 -7 5 -4 10 3 6 8 10 11 10 2
0 4 -4 4 -10z m-1223 -32 c-3 -7 -5 -2 -5 12 0 14 2 19 5 13 2 -7 2 -19 0 -25z
m-624 6 c-7 -3 -9 -12 -6 -20 3 -7 9 -11 14 -8 5 3 6 -2 3 -9 -3 -9 -22 -17
-44 -19 -38 -3 -39 -3 -22 17 24 28 45 44 57 44 6 0 5 -3 -2 -5z m567 -14 c0
-5 -5 -10 -11 -10 -5 0 -7 5 -4 10 3 6 8 10 11 10 2 0 4 -4 4 -10z m-666 -6
c23 -9 20 -24 -4 -24 -11 0 -20 7 -20 15 0 17 2 18 24 9z m221 -62 c-6 -16 -7
-16 -16 0 -6 11 -5 26 3 45 l12 28 4 -28 c2 -16 1 -36 -3 -45z m-35 11 c0 -26
-3 -34 -11 -26 -9 9 -3 63 7 63 2 0 4 -17 4 -37z m-35 17 c3 -5 1 -10 -4 -10
-6 0 -11 5 -11 10 0 6 2 10 4 10 3 0 8 -4 11 -10z m385 -75 c0 -3 -9 -15 -20
-27 -22 -24 -26 -18 -10 13 10 17 30 27 30 14z m87 -21 c-3 -3 -12 -4 -19 -1
-8 3 -5 6 6 6 11 1 17 -2 13 -5z m-182 -14 c3 -5 1 -10 -4 -10 -6 0 -11 5 -11
10 0 6 2 10 4 10 3 0 8 -4 11 -10z m-255 -36 c40 -16 49 -27 30 -39 -14 -8
-81 5 -75 15 3 5 1 11 -5 15 -13 8 -13 25 0 25 5 0 28 -7 50 -16z m84 -28 c-3
-9 -10 -13 -16 -10 -5 3 -4 12 3 20 15 18 22 13 13 -10z m-444 -27 c0 -4 -7
-12 -15 -19 -21 -17 -39 1 -30 29 5 17 9 19 26 8 10 -6 19 -15 19 -18z m106
-19 c8 0 11 -6 7 -17 -5 -15 -3 -16 8 -5 26 24 80 14 116 -20 32 -30 44 -68
23 -68 -5 0 -10 4 -10 8 0 9 -22 12 -97 16 -58 2 -80 14 -45 23 40 10 23 21
-32 18 -30 -1 -61 4 -70 10 -15 11 -12 14 21 28 21 9 44 14 51 12 8 -3 20 -5
28 -5z m199 -104 c0 -18 -3 -22 -12 -14 -7 6 -13 17 -13 24 0 8 6 14 13 14 6
0 12 -11 12 -24z m-155 -6 c-8 -5 -19 -10 -25 -10 -5 0 -3 5 5 10 8 5 20 10
25 10 6 0 3 -5 -5 -10z m-45 -30 c-4 -12 -9 -19 -12 -17 -3 3 -2 15 2 27 4 12
9 19 12 17 3 -3 2 -15 -2 -27z m85 -31 c0 -11 -2 -19 -5 -19 -9 0 -43 38 -39
43 12 11 44 -7 44 -24z m67 -5 c-9 -9 -28 6 -21 18 4 6 10 6 17 -1 6 -6 8 -13
4 -17z m183 -84 c0 -5 -7 -10 -16 -10 -8 0 -12 5 -9 10 3 6 10 10 16 10 5 0 9
-4 9 -10z m1440 -105 c0 -9 -9 -15 -21 -15 -18 0 -19 2 -9 15 7 8 16 15 21 15
5 0 9 -7 9 -15z m1129 12 c-2 -1 -13 -9 -24 -17 -19 -14 -19 -14 -6 3 7 9 18
17 24 17 6 0 8 -1 6 -3z m-133 -115 c-22 -5 -30 3 -21 18 5 8 11 7 22 -2 15
-12 14 -13 -1 -16z m-41 -24 c-4 -13 -24 -39 -44 -58 -20 -19 -34 -39 -32 -45
1 -5 4 -23 5 -38 2 -23 -3 -31 -23 -39 -14 -5 -41 -25 -58 -44 -18 -19 -40
-34 -48 -34 -8 0 -15 -4 -15 -10 0 -5 13 -7 30 -3 23 4 30 2 30 -10 0 -16 -20
-27 -52 -27 -11 0 -18 -5 -16 -12 7 -19 -13 -34 -57 -42 -52 -10 -57 -14 -44
-35 8 -12 21 -16 43 -14 27 2 28 1 7 -5 -13 -4 -28 -16 -32 -27 -6 -16 -8 -17
-8 -3 -1 21 -38 33 -55 18 -8 -6 -18 -10 -22 -9 -5 1 -26 1 -46 0 -44 -1 -51
-22 -13 -39 26 -12 29 -20 19 -46 -5 -13 -9 -14 -21 -5 -10 9 -20 9 -36 1 -26
-12 -61 -24 -65 -22 -2 1 -13 -5 -26 -14 -13 -8 -33 -12 -44 -9 -17 4 -20 1
-15 -16 4 -17 2 -20 -11 -15 -9 3 -13 10 -10 15 3 5 2 9 -3 9 -19 1 -33 18
-27 33 4 11 18 17 40 17 40 0 46 19 7 21 -17 1 -21 3 -10 6 9 2 17 9 17 14 0
5 9 9 20 9 11 0 20 6 20 14 0 8 20 23 44 35 48 22 67 41 42 41 -26 0 -18 17
15 30 20 9 26 16 18 20 -8 5 -2 14 17 26 16 10 39 28 52 40 12 13 29 21 37 18
9 -4 15 0 15 10 0 8 10 21 22 27 12 7 37 27 55 46 17 19 37 32 42 28 6 -3 27
10 46 29 19 20 35 32 35 28 0 -4 7 1 15 12 7 10 18 15 24 12 5 -4 17 6 26 21
13 22 56 51 93 62 2 1 0 -9 -3 -21z m20 -58 c3 -5 -1 -10 -9 -10 -8 0 -23 -11
-34 -25 -23 -29 -32 -32 -32 -9 0 17 18 38 40 47 23 8 28 8 35 -3z m-2612 -55
c-2 -23 1 -26 18 -22 15 4 19 1 17 -10 -4 -22 -39 -42 -45 -25 -3 6 -11 12
-18 12 -7 0 -15 15 -17 34 -5 48 -1 56 25 47 16 -7 21 -16 20 -36z m2567 -35
c0 -5 -5 -10 -11 -10 -5 0 -7 5 -4 10 3 6 8 10 11 10 2 0 4 -4 4 -10z m-2610
-261 c0 -14 -17 -10 -23 5 -4 10 -1 13 9 9 7 -3 14 -9 14 -14z m2286 -58 c-10
-16 -46 -20 -46 -5 0 8 10 14 26 14 14 0 23 -4 20 -9z m-12 -61 c14 7 29 10
33 6 12 -11 -29 -38 -49 -33 -24 7 -41 -18 -35 -49 5 -26 -3 -31 -61 -45 -4
-1 -12 -9 -18 -17 -10 -13 -15 -13 -42 4 -18 10 -32 21 -32 24 0 10 15 26 40
43 13 9 19 17 12 17 -7 0 -10 5 -7 10 9 15 75 12 76 -2 0 -8 3 -7 6 2 11 30
36 51 44 38 6 -9 13 -9 33 2z m226 -24 c0 -3 -4 -8 -10 -11 -5 -3 -10 -1 -10
4 0 6 5 11 10 11 6 0 10 -2 10 -4z m-475 -94 c-4 -30 -17 -52 -31 -52 -17 0
-19 30 -1 31 8 0 8 2 1 5 -7 3 -10 13 -7 23 6 23 40 17 38 -7z m-55 -42 c0
-35 -19 -50 -27 -21 -3 12 -11 21 -19 21 -24 0 -26 20 -2 29 33 12 48 3 48
-29z m120 24 c0 -18 -23 -44 -40 -44 -27 0 -36 20 -11 27 12 3 21 9 21 14 0 5
7 9 15 9 8 0 15 -3 15 -6z m280 -15 c0 -5 -4 -9 -10 -9 -5 0 -10 7 -10 16 0 8
5 12 10 9 6 -3 10 -10 10 -16z m1040 11 c0 -5 -4 -10 -10 -10 -5 0 -10 5 -10
10 0 6 5 10 10 10 6 0 10 -4 10 -10z m-1550 -25 c-14 -16 -60 -21 -60 -6 0 9
22 16 59 20 11 1 11 -2 1 -14z m53 -52 c-7 -2 -19 -2 -25 0 -7 3 -2 5 12 5 14
0 19 -2 13 -5z m17 -43 c0 -5 -7 -10 -16 -10 -8 0 -12 5 -9 10 3 6 10 10 16
10 5 0 9 -4 9 -10z m159 -24 c-2 -2 -20 -7 -39 -11 -24 -5 -32 -4 -25 3 6 6
21 12 35 14 25 4 37 1 29 -6z m-229 -55 c-24 -19 -40 -19 -40 -1 0 7 21 15 55
18 6 1 -1 -7 -15 -17z m1371 -23 c-18 -14 -20 -18 -7 -18 9 0 16 -4 16 -10 0
-5 -4 -10 -10 -10 -5 0 -10 -11 -10 -25 0 -14 -4 -25 -10 -25 -5 0 -10 -11
-10 -24 0 -14 -4 -28 -10 -31 -5 -3 -10 -14 -10 -24 0 -10 -9 -26 -20 -36 -11
-10 -20 -25 -20 -33 0 -8 -13 -34 -30 -59 -16 -24 -30 -48 -30 -54 0 -5 -4 -9
-9 -9 -5 0 -11 -10 -13 -22 -2 -13 -11 -24 -23 -27 -17 -3 -18 -1 -6 13 7 9
11 27 9 41 -3 14 -1 28 3 31 5 3 9 14 9 25 0 10 7 19 15 19 13 0 55 70 55 92
0 4 -9 8 -20 8 -11 0 -20 4 -20 9 0 5 8 7 19 4 20 -5 61 24 61 44 0 6 7 16 16
21 10 5 17 25 19 49 3 42 31 86 48 76 6 -3 0 -14 -12 -25z m-923 -40 c-7 -19
-38 -22 -38 -4 0 10 9 16 21 16 12 0 19 -5 17 -12z m-133 -8 c3 -5 -1 -10 -9
-10 -9 0 -16 5 -16 10 0 6 4 10 9 10 6 0 13 -4 16 -10z m231 -27 c-6 -15 -9
-15 -16 -3 -6 9 -5 17 3 22 16 10 21 2 13 -19z m-326 -35 c0 -5 -12 -8 -27 -9
-16 -1 -43 -2 -60 -4 -30 -2 -41 4 -28 16 8 8 115 5 115 -3z m1040 -28 c0 -5
-5 -10 -11 -10 -5 0 -7 5 -4 10 3 6 8 10 11 10 2 0 4 -4 4 -10z m-123 -276
c-9 -9 -28 6 -21 18 4 6 10 6 17 -1 6 -6 8 -13 4 -17z m-48 -65 c-11 -7 -10
-9 5 -9 11 0 17 -3 13 -6 -3 -3 -15 -3 -27 1 -21 7 -21 7 -3 27 11 13 19 15
21 8 3 -7 -2 -16 -9 -21z m-52 -109 c22 0 -3 -29 -36 -42 -19 -7 -22 -11 -12
-18 11 -6 -1 -18 -45 -45 -32 -21 -70 -45 -84 -54 -69 -44 -124 -59 -79 -21
21 17 22 21 9 30 -15 10 -11 11 55 14 11 1 21 9 23 19 2 9 12 17 23 17 10 0
19 5 19 10 0 6 5 10 11 10 7 0 23 12 38 28 25 26 27 30 30 53 0 6 8 8 17 5 9
-3 23 -6 31 -6z m-106 -43 c-8 -8 -11 -7 -11 4 0 20 13 34 18 19 3 -7 -1 -17
-7 -23z m-191 -182 c-7 -8 -20 -15 -29 -15 -13 1 -13 3 3 15 26 19 42 19 26 0z
m-2360 -6 c0 -7 11 -9 26 -6 21 4 29 -1 42 -22 17 -30 54 -51 88 -51 29 0 86
-64 77 -87 -4 -10 -2 -14 4 -10 6 4 29 -11 52 -33 22 -22 47 -40 56 -40 18 0
20 16 3 23 -8 3 -6 6 5 6 17 1 22 -14 18 -53 -2 -29 17 -80 40 -104 l20 -22
-20 0 c-14 0 -19 -5 -15 -14 3 -8 11 -13 19 -10 16 6 26 -18 14 -37 -7 -11
-11 -10 -23 6 -8 11 -18 16 -22 12 -11 -10 -5 -101 6 -105 15 -5 -13 -42 -32
-42 -9 0 -18 -5 -20 -11 -5 -16 -71 -27 -250 -39 -198 -13 -245 -6 -250 38 -2
22 -9 28 -33 30 -40 5 -57 20 -50 46 3 12 2 15 -1 9 -3 -7 -11 -13 -17 -13
-19 1 -87 66 -87 83 0 9 -4 18 -10 22 -5 3 -6 13 -3 22 5 13 2 15 -14 11 -19
-5 -22 0 -25 36 -2 22 -1 57 2 76 6 34 6 34 18 13 15 -27 34 -29 56 -8 8 8 22
15 31 15 8 0 18 -7 21 -15 4 -8 12 -15 20 -15 8 0 14 -4 14 -10 0 -13 27 -13
35 0 3 5 8 20 10 32 6 31 29 51 73 63 26 8 37 17 38 30 2 41 5 45 32 46 15 0
21 3 15 6 -18 7 -17 53 1 53 22 0 41 29 28 42 -15 15 -16 38 -2 38 6 0 10 -5
10 -11z m2250 -59 c0 -5 -8 -10 -17 -10 -15 0 -16 2 -3 10 19 12 20 12 20 0z
m-2764 -41 c10 -17 -13 -36 -27 -22 -12 12 -4 33 11 33 5 0 12 -5 16 -11z m54
0 c0 -5 -4 -8 -9 -4 -5 3 -12 -3 -14 -12 -4 -14 -5 -13 -6 5 -1 13 5 22 14 22
8 0 15 -5 15 -11z m2280 -29 c0 -5 -4 -10 -10 -10 -5 0 -10 5 -10 10 0 6 5 10
10 10 6 0 10 -4 10 -10z m-2284 -36 c-3 -9 -6 -19 -6 -24 0 -5 -13 -8 -30 -8
-31 1 -39 11 -18 24 6 4 14 2 16 -4 2 -7 8 -12 14 -12 5 0 6 9 3 20 -5 15 -2
20 10 20 12 0 15 -5 11 -16z m78 -42 c-6 -9 -20 -18 -32 -20 -11 -2 -26 -10
-32 -18 -16 -18 -30 -18 -30 1 0 8 7 15 15 15 8 0 15 5 15 12 0 6 10 22 22 35
20 21 23 22 37 8 12 -12 13 -20 5 -33z m2393 28 c3 -10 2 -11 -4 -4 -4 7 -17
14 -28 17 -16 5 -15 5 4 4 14 -1 26 -9 28 -17z m-2326 -57 c-9 -15 -10 -13
-11 13 0 17 3 34 8 38 11 12 14 -32 3 -51z m2295 32 c-11 -8 -27 -15 -36 -15
-9 0 -21 -5 -28 -12 -6 -6 -14 -9 -17 -7 -3 3 7 11 23 18 15 8 34 17 42 22 25
13 36 9 16 -6z m-201 -14 c3 -5 1 -12 -5 -16 -5 -3 -10 1 -10 9 0 18 6 21 15
7z m-41 -86 c-4 -8 -13 -15 -20 -15 -12 0 -12 3 -2 15 17 19 29 19 22 0z m-44
-15 c0 -5 -7 -10 -16 -10 -8 0 -12 5 -9 10 3 6 10 10 16 10 5 0 9 -4 9 -10z
m-86 -25 c-4 -8 -11 -15 -16 -15 -6 0 -5 6 2 15 7 8 14 15 16 15 2 0 1 -7 -2
-15z m-1164 -245 c0 -5 -5 -10 -11 -10 -5 0 -7 5 -4 10 3 6 8 10 11 10 2 0 4
-4 4 -10z m-6905 -397 c44 -19 87 -39 95 -43 9 -4 35 -11 58 -15 25 -4 54 -18
73 -36 17 -16 35 -27 39 -24 4 3 11 -2 14 -11 3 -9 12 -14 19 -11 8 3 22 -6
32 -20 21 -27 69 -56 79 -46 3 4 6 1 6 -5 0 -6 14 -13 30 -17 17 -4 30 -11 30
-16 0 -6 4 -8 9 -4 5 3 12 -3 16 -14 4 -13 22 -23 58 -32 29 -6 62 -19 74 -27
18 -11 48 -13 154 -8 72 3 134 8 139 11 5 3 11 1 15 -5 9 -14 47 -5 130 30 17
8 35 14 40 14 21 2 95 39 95 48 0 5 4 7 8 4 5 -3 21 2 36 10 16 7 48 14 72 14
24 0 74 11 111 25 37 14 95 28 128 31 33 3 61 7 63 9 7 7 84 -41 82 -51 0 -5
9 -11 22 -14 31 -8 48 -45 48 -106 0 -34 -6 -56 -18 -70 -9 -10 -32 -38 -50
-60 -51 -66 -229 -242 -252 -249 -11 -3 -20 -11 -20 -16 0 -5 -5 -9 -11 -9
-16 0 -64 -38 -117 -94 -26 -27 -51 -53 -57 -57 -5 -5 -25 -22 -43 -38 -18
-17 -42 -33 -53 -36 -10 -4 -19 -14 -19 -22 0 -9 -3 -14 -6 -10 -7 7 -111 -89
-216 -201 -20 -22 -56 -55 -80 -73 -24 -19 -68 -59 -99 -89 -84 -82 -189 -175
-234 -208 -22 -16 -56 -47 -77 -68 -20 -21 -58 -57 -86 -79 -27 -22 -63 -58
-80 -80 -17 -22 -50 -60 -72 -84 -49 -53 -100 -122 -100 -134 0 -5 -8 -21 -19
-35 -10 -15 -21 -45 -25 -67 -10 -51 -29 -81 -66 -100 -16 -8 -32 -15 -35 -15
-35 1 -36 -1 -6 -35 27 -31 31 -43 31 -91 0 -30 -7 -68 -15 -85 -9 -16 -23
-69 -31 -117 -9 -48 -19 -96 -24 -107 -16 -35 -30 -99 -30 -135 0 -47 -49
-145 -97 -195 -21 -22 -47 -56 -57 -75 -11 -19 -38 -60 -60 -90 -23 -30 -47
-66 -53 -80 -38 -75 -140 -193 -190 -219 -57 -29 -95 4 -101 88 -4 56 -8 63
-56 113 -55 56 -101 98 -179 162 -26 22 -47 45 -47 52 0 7 -5 14 -12 16 -9 3
-9 23 1 89 7 46 14 100 16 121 2 20 15 67 30 104 17 43 29 93 31 134 2 36 10
92 18 125 21 86 15 141 -17 171 -25 23 -39 63 -18 50 5 -3 2 13 -5 35 -8 22
-11 45 -8 51 4 6 6 35 5 64 0 30 4 54 9 54 6 0 10 7 10 16 0 9 18 33 40 54 22
21 40 42 40 48 0 6 5 12 12 14 11 4 12 54 8 788 -2 211 -5 290 -15 305 -7 11
-15 34 -19 52 -9 42 -11 227 -2 242 4 6 2 11 -4 11 -6 0 -10 12 -8 28 2 23 8
28 36 30 19 2 57 18 85 36 29 18 71 43 94 54 23 12 45 31 48 43 4 11 9 18 12
15 8 -8 33 21 33 39 0 9 5 13 10 10 6 -3 10 2 10 13 0 24 37 59 72 67 15 4 32
13 39 21 6 8 17 14 23 14 17 0 71 51 68 64 -2 6 0 8 4 4 4 -4 25 12 48 35 l41
43 80 -3 c66 -3 94 -10 160 -40z m12742 -955 c-3 -7 -5 -2 -5 12 0 14 2 19 5
13 2 -7 2 -19 0 -25z"/>
<path d="M9510 16101 c0 -6 4 -13 10 -16 6 -3 7 1 4 9 -7 18 -14 21 -14 7z"/>
<path d="M9360 16090 c0 -5 5 -10 11 -10 5 0 7 5 4 10 -3 6 -8 10 -11 10 -2 0
-4 -4 -4 -10z"/>
<path d="M8840 15755 c0 -9 5 -15 11 -13 6 2 11 8 11 13 0 5 -5 11 -11 13 -6
2 -11 -4 -11 -13z"/>
<path d="M11072 15681 c-6 -3 -8 -12 -4 -18 11 -18 84 -44 104 -37 26 8 14 18
-25 20 -18 1 -38 11 -47 22 -9 11 -22 17 -28 13z"/>
<path d="M11040 15516 c0 -2 7 -7 16 -10 8 -3 12 -2 9 4 -6 10 -25 14 -25 6z"/>
<path d="M8710 15166 c0 -9 5 -16 10 -16 6 0 10 4 10 9 0 6 -4 13 -10 16 -5 3
-10 -1 -10 -9z"/>
<path d="M13165 14990 c3 -5 13 -10 21 -10 8 0 12 5 9 10 -3 6 -13 10 -21 10
-8 0 -12 -4 -9 -10z"/>
<path d="M13206 14972 c-3 -6 -1 -14 5 -17 15 -10 25 3 12 16 -7 7 -13 7 -17
1z"/>
<path d="M13180 14870 c0 -5 5 -10 11 -10 7 0 9 -12 5 -34 -8 -39 5 -54 25
-29 12 14 12 16 0 8 -11 -6 -13 -3 -7 18 3 14 3 33 0 41 -7 17 -34 22 -34 6z"/>
<path d="M13093 14744 c-9 -25 13 -40 26 -16 10 19 6 32 -11 32 -5 0 -11 -7
-15 -16z"/>
<path d="M13060 14340 c0 -5 7 -10 15 -10 8 0 15 5 15 10 0 6 -7 10 -15 10 -8
0 -15 -4 -15 -10z"/>
<path d="M12860 14247 c0 -7 7 -22 15 -33 14 -18 14 -17 15 14 0 22 -5 32 -15
32 -8 0 -15 -6 -15 -13z"/>
<path d="M12100 14116 c0 -2 9 -6 20 -9 11 -3 18 -1 14 4 -5 9 -34 13 -34 5z"/>
<path d="M12852 14109 c2 -6 8 -10 13 -10 5 0 11 4 13 10 2 6 -4 11 -13 11 -9
0 -15 -5 -13 -11z"/>
<path d="M11848 14073 c7 -3 16 -2 19 1 4 3 -2 6 -13 5 -11 0 -14 -3 -6 -6z"/>
<path d="M12900 14011 c0 -6 4 -13 10 -16 6 -3 7 1 4 9 -7 18 -14 21 -14 7z"/>
<path d="M12285 13980 c3 -5 15 -10 26 -10 11 0 17 5 14 10 -3 6 -15 10 -26
10 -11 0 -17 -4 -14 -10z"/>
<path d="M12882 13978 c2 -6 10 -14 16 -16 7 -2 10 2 6 12 -7 18 -28 22 -22 4z"/>
<path d="M11041 13774 c0 -11 3 -14 6 -6 3 7 2 16 -1 19 -3 4 -6 -2 -5 -13z"/>
<path d="M13260 14710 c0 -5 5 -10 10 -10 6 0 10 5 10 10 0 6 -4 10 -10 10 -5
0 -10 -4 -10 -10z"/>
<path d="M14055 13680 c3 -5 8 -10 11 -10 2 0 4 5 4 10 0 6 -5 10 -11 10 -5 0
-7 -4 -4 -10z"/>
<path d="M11442 13295 c2 -44 7 -52 22 -38 4 4 16 8 26 8 26 0 21 20 -5 22
-11 0 -24 1 -29 2 -6 1 -2 7 7 14 16 11 16 13 -3 24 -19 12 -19 11 -18 -32z"/>
<path d="M12145 13310 c-3 -5 -1 -10 6 -10 7 0 23 -10 36 -22 29 -27 41 -17
19 17 -17 25 -50 33 -61 15z"/>
<path d="M12678 13303 c7 -3 16 -2 19 1 4 3 -2 6 -13 5 -11 0 -14 -3 -6 -6z"/>
<path d="M12090 13293 c-68 -10 -64 -19 17 -38 32 -7 68 -16 81 -20 40 -13 23
11 -25 37 -27 13 -59 23 -73 21z"/>
<path d="M11558 13273 c7 -3 16 -2 19 1 4 3 -2 6 -13 5 -11 0 -14 -3 -6 -6z"/>
<path d="M11755 13259 c-4 -6 -13 -8 -20 -5 -11 4 -11 -1 -3 -25 6 -17 11 -29
13 -27 13 16 33 68 26 68 -5 0 -13 -5 -16 -11z"/>
<path d="M11875 13260 c-3 -5 -1 -11 4 -15 12 -7 61 4 61 15 0 10 -59 10 -65
0z"/>
<path d="M11955 13250 c3 -5 8 -10 11 -10 2 0 4 5 4 10 0 6 -5 10 -11 10 -5 0
-7 -4 -4 -10z"/>
<path d="M12000 13211 c0 -6 4 -13 10 -16 6 -3 7 1 4 9 -7 18 -14 21 -14 7z"/>
<path d="M11770 13179 c0 -11 5 -17 10 -14 6 3 10 13 10 21 0 8 -4 14 -10 14
-5 0 -10 -9 -10 -21z"/>
<path d="M11740 13110 c20 -13 33 -13 25 0 -3 6 -14 10 -23 10 -15 0 -15 -2
-2 -10z"/>
<path d="M11510 13060 c0 -5 -7 -7 -15 -4 -10 4 -15 0 -15 -10 0 -17 58 -48
72 -40 5 3 8 -1 8 -9 0 -8 12 -17 28 -20 15 -3 45 -10 67 -15 22 -6 63 -9 90
-7 28 2 59 4 70 5 28 0 7 15 -42 28 -22 7 -52 23 -65 37 -22 24 -66 36 -53 15
11 -17 -10 -11 -32 10 -18 16 -22 17 -27 5 -7 -20 -52 -19 -60 0 -6 17 -26 21
-26 5z"/>
<path d="M11455 13051 c-3 -5 -1 -12 5 -16 5 -3 10 1 10 9 0 18 -6 21 -15 7z"/>
<path d="M9010 13220 c-14 -11 -20 -20 -13 -20 11 0 43 26 43 36 0 7 -4 5 -30
-16z"/>
<path d="M9445 13230 c-3 -5 -1 -10 4 -10 6 0 11 5 11 10 0 6 -2 10 -4 10 -3
0 -8 -4 -11 -10z"/>
<path d="M9402 13168 c-5 -7 -13 -24 -17 -38 -7 -21 -6 -22 7 -10 13 13 31 60
23 60 -1 0 -7 -6 -13 -12z"/>
<path d="M9883 13063 c3 -13 1 -23 -4 -23 -5 0 -9 4 -9 10 0 5 -16 9 -35 8
-19 -1 -32 -5 -29 -10 3 -4 -7 -8 -21 -8 -26 0 -38 -7 -76 -45 -19 -18 -19
-20 -2 -27 28 -11 36 -9 29 7 -3 9 0 15 9 15 15 0 16 -25 2 -47 -5 -8 -4 -13
2 -13 6 0 11 4 11 10 0 7 88 40 107 40 12 0 -1 -27 -17 -38 -21 -13 -28 -42
-10 -42 6 0 10 7 10 15 0 8 3 14 8 14 29 -5 40 6 55 52 21 63 21 69 2 69 -7 0
-19 8 -25 18 -10 15 -11 14 -7 -5z m-73 -62 c0 -18 -18 -21 -30 -6 -10 13 -9
15 9 15 11 0 21 -4 21 -9z"/>
<path d="M8690 13060 c0 -5 5 -10 10 -10 6 0 10 5 10 10 0 6 -4 10 -10 10 -5
0 -10 -4 -10 -10z"/>
<path d="M9460 13025 c0 -28 -9 -35 -53 -41 -46 -5 -129 -25 -148 -34 -9 -5
-35 -14 -58 -20 -23 -6 -39 -14 -37 -19 3 -4 51 -8 108 -9 92 -1 113 2 191 29
48 18 87 37 87 43 0 8 2 8 8 -1 5 -8 16 -4 37 13 l30 24 -28 0 c-19 0 -26 4
-22 13 4 6 -1 3 -9 -7 -9 -11 -16 -14 -16 -8 0 14 -46 16 -55 2 -3 -5 -12 -10
-18 -10 -7 0 -4 5 6 11 23 13 22 25 -3 32 -16 4 -20 0 -20 -18z"/>
<path d="M9620 12945 c0 -8 5 -15 10 -15 6 0 10 7 10 15 0 8 -4 15 -10 15 -5
0 -10 -7 -10 -15z"/>
<path d="M9815 12950 c3 -5 8 -10 11 -10 2 0 4 5 4 10 0 6 -5 10 -11 10 -5 0
-7 -4 -4 -10z"/>
<path d="M9785 12929 c-4 -6 -5 -12 -2 -15 2 -3 7 2 10 11 7 17 1 20 -8 4z"/>
<path d="M10665 12700 c-3 -5 -1 -10 4 -10 6 0 11 5 11 10 0 6 -2 10 -4 10 -3
0 -8 -4 -11 -10z"/>
<path d="M10661 12584 c0 -11 3 -14 6 -6 3 7 2 16 -1 19 -3 4 -6 -2 -5 -13z"/>
<path d="M10202 12557 c-7 -8 -7 -17 2 -29 11 -15 13 -15 24 3 20 31 -3 54
-26 26z"/>
<path d="M10660 12481 c0 -10 29 -36 34 -30 1 2 -6 12 -16 22 -10 9 -18 13
-18 8z"/>
<path d="M10842 12401 c4 -13 18 -16 19 -4 0 4 -5 9 -11 12 -7 2 -11 -2 -8 -8z"/>
<path d="M10825 11733 c8 -31 13 -39 20 -31 9 9 -6 58 -17 58 -6 0 -7 -11 -3
-27z"/>
<path d="M10910 11670 c0 -5 7 -7 15 -4 8 4 15 1 15 -5 0 -6 5 -11 10 -11 6 0
10 7 10 15 0 9 -9 15 -25 15 -14 0 -25 -4 -25 -10z"/>
<path d="M12970 11460 c0 -5 5 -10 10 -10 6 0 10 5 10 10 0 6 -4 10 -10 10 -5
0 -10 -4 -10 -10z"/>
<path d="M12945 11370 c-3 -5 3 -10 15 -10 12 0 18 5 15 10 -3 6 -10 10 -15
10 -5 0 -12 -4 -15 -10z"/>
<path d="M12816 11285 c4 -8 8 -15 10 -15 2 0 4 7 4 15 0 8 -4 15 -10 15 -5 0
-7 -7 -4 -15z"/>
<path d="M10823 11213 c-7 -2 -13 -14 -13 -26 1 -26 26 -62 34 -49 3 5 24 8
46 6 36 -3 40 -1 40 19 0 36 -66 66 -107 50z m53 -40 c-10 -10 -19 5 -10 18 6
11 8 11 12 0 2 -7 1 -15 -2 -18z"/>
<path d="M12450 11199 c0 -5 5 -7 10 -4 6 3 10 8 10 11 0 2 -4 4 -10 4 -5 0
-10 -5 -10 -11z"/>
<path d="M12690 11190 c0 -5 5 -10 10 -10 6 0 10 5 10 10 0 6 -4 10 -10 10 -5
0 -10 -4 -10 -10z"/>
<path d="M9950 11140 c0 -5 5 -10 10 -10 6 0 10 5 10 10 0 6 -4 10 -10 10 -5
0 -10 -4 -10 -10z"/>
<path d="M11480 11109 c0 -5 5 -7 10 -4 6 3 10 8 10 11 0 2 -4 4 -10 4 -5 0
-10 -5 -10 -11z"/>
<path d="M10400 11096 c0 -9 5 -16 10 -16 6 0 10 4 10 9 0 6 -4 13 -10 16 -5
3 -10 -1 -10 -9z"/>
<path d="M9881 11024 c0 -11 3 -14 6 -6 3 7 2 16 -1 19 -3 4 -6 -2 -5 -13z"/>
<path d="M9965 10990 c-3 -5 -1 -10 4 -10 6 0 11 5 11 10 0 6 -2 10 -4 10 -3
0 -8 -4 -11 -10z"/>
<path d="M9940 10981 c0 -6 4 -13 10 -16 6 -3 7 1 4 9 -7 18 -14 21 -14 7z"/>
<path d="M9780 10970 c0 -5 7 -7 15 -4 8 4 15 8 15 10 0 2 -7 4 -15 4 -8 0
-15 -4 -15 -10z"/>
<path d="M9830 10960 c-8 -5 -10 -10 -5 -10 6 0 17 5 25 10 8 5 11 10 5 10 -5
0 -17 -5 -25 -10z"/>
<path d="M9745 10890 c-3 -5 1 -10 9 -10 9 0 16 5 16 10 0 6 -4 10 -9 10 -6 0
-13 -4 -16 -10z"/>
<path d="M9870 10850 c0 -5 5 -10 10 -10 6 0 10 5 10 10 0 6 -4 10 -10 10 -5
0 -10 -4 -10 -10z"/>
<path d="M12280 10750 c-12 -8 -11 -10 7 -10 12 0 25 5 28 10 8 13 -15 13 -35
0z"/>
<path d="M12177 10714 c-8 -8 1 -24 14 -24 5 0 9 7 9 15 0 15 -12 20 -23 9z"/>
<path d="M12224 10696 c-3 -8 -4 -24 -2 -36 l3 -21 23 21 c13 12 21 27 19 33
-6 18 -36 20 -43 3z"/>
<path d="M11945 10650 c-3 -5 1 -10 10 -10 9 0 13 5 10 10 -3 6 -8 10 -10 10
-2 0 -7 -4 -10 -10z"/>
<path d="M12176 10645 c4 -8 8 -15 10 -15 2 0 4 7 4 15 0 8 -4 15 -10 15 -5 0
-7 -7 -4 -15z"/>
<path d="M12270 10604 c0 -8 5 -12 10 -9 6 4 8 11 5 16 -9 14 -15 11 -15 -7z"/>
<path d="M12350 10549 c0 -5 5 -7 10 -4 6 3 10 8 10 11 0 2 -4 4 -10 4 -5 0
-10 -5 -10 -11z"/>
<path d="M12210 10484 c0 -8 5 -12 10 -9 6 3 10 10 10 16 0 5 -4 9 -10 9 -5 0
-10 -7 -10 -16z"/>
<path d="M8490 12070 c0 -5 5 -10 10 -10 6 0 10 5 10 10 0 6 -4 10 -10 10 -5
0 -10 -4 -10 -10z"/>
<path d="M8743 11519 c-31 -11 -29 -35 3 -43 35 -9 51 6 33 32 -11 15 -19 17
-36 11z"/>
<path d="M9580 11325 c-11 -14 -11 -18 2 -32 9 -8 21 -12 27 -9 14 9 14 18 -2
40 -12 16 -14 17 -27 1z"/>
<path d="M8970 11320 c0 -5 5 -10 10 -10 6 0 10 5 10 10 0 6 -4 10 -10 10 -5
0 -10 -4 -10 -10z"/>
<path d="M9425 11290 c-3 -5 -1 -10 4 -10 6 0 11 5 11 10 0 6 -2 10 -4 10 -3
0 -8 -4 -11 -10z"/>
<path d="M9540 11221 c0 -12 6 -21 16 -21 9 0 14 7 12 17 -5 25 -28 28 -28 4z"/>
<path d="M9020 11055 c0 -8 5 -15 10 -15 6 0 10 7 10 15 0 8 -4 15 -10 15 -5
0 -10 -7 -10 -15z"/>
<path d="M11555 10500 c-3 -5 -1 -10 4 -10 6 0 11 5 11 10 0 6 -2 10 -4 10 -3
0 -8 -4 -11 -10z"/>
<path d="M12000 10417 c0 -10 -6 -14 -15 -11 -9 4 -15 0 -15 -9 0 -17 34 -32
50 -22 15 9 12 31 -5 45 -12 10 -15 10 -15 -3z"/>
<path d="M11882 10369 c-15 -23 -2 -49 24 -49 8 0 14 -4 14 -10 0 -5 7 -10 15
-10 8 0 15 5 15 10 0 6 -7 10 -15 10 -14 0 -20 24 -16 58 3 20 -23 14 -37 -9z"/>
<path d="M11730 10370 c0 -5 5 -10 11 -10 5 0 7 5 4 10 -3 6 -8 10 -11 10 -2
0 -4 -4 -4 -10z"/>
<path d="M11610 10240 c-8 -5 -12 -12 -9 -15 4 -3 12 1 19 10 14 17 11 19 -10
5z"/>
<path d="M11640 10219 c0 -14 5 -19 17 -17 26 5 29 38 4 38 -15 0 -21 -6 -21
-21z"/>
<path d="M11552 10177 c-18 -10 -32 -23 -32 -28 0 -14 30 -11 31 4 0 6 5 1 10
-13 6 -14 8 -32 6 -42 -4 -13 -1 -15 12 -8 9 5 24 11 34 14 9 3 17 12 17 21 0
17 -16 20 -25 5 -3 -5 -12 -10 -18 -10 -7 0 -4 7 6 14 9 7 17 21 17 30 0 9 4
16 9 16 11 0 21 -25 21 -51 0 -10 6 -19 14 -19 23 0 31 22 13 35 -10 7 -17 19
-17 28 0 23 -60 26 -98 4z"/>
<path d="M11860 10164 c-15 -9 -17 -13 -6 -10 15 5 18 2 14 -19 -4 -16 -1 -24
6 -22 6 2 11 9 11 15 0 5 3 14 8 18 4 4 7 13 7 21 0 17 -9 16 -40 -3z"/>
<path d="M11271 10130 c-28 -22 -59 -40 -68 -40 -10 0 -28 -6 -39 -14 -11 -8
-30 -16 -42 -18 -28 -4 -34 -23 -7 -23 11 0 21 -8 23 -19 3 -15 -1 -18 -22
-14 -14 3 -23 1 -20 -4 4 -5 -8 -2 -25 7 -31 15 -32 15 -56 -11 -23 -25 -26
-26 -48 -11 -19 12 -27 13 -37 4 -10 -9 -14 -9 -17 0 -3 10 -10 10 -24 2 -15
-7 -24 -7 -34 1 -11 9 -21 4 -46 -24 -23 -27 -35 -34 -44 -26 -22 18 -36 -11
-20 -40 14 -25 14 -25 15 -2 0 13 6 22 16 22 8 0 13 -4 9 -10 -3 -5 -3 -21 1
-36 6 -22 8 -24 16 -10 13 22 50 21 46 -1 -2 -10 -9 -18 -16 -18 -7 0 -17 -7
-22 -15 -7 -10 -10 -11 -10 -2 0 6 -4 12 -10 12 -5 0 -10 -9 -10 -20 0 -11 -7
-23 -15 -26 -8 -4 -15 -14 -16 -23 0 -13 -2 -12 -8 3 -5 12 -10 16 -14 9 -11
-18 4 -44 32 -55 14 -6 29 -11 34 -10 4 1 7 -7 7 -17 0 -22 -19 -38 -29 -25
-10 14 -134 17 -126 3 4 -6 2 -15 -5 -19 -10 -6 -9 -13 6 -32 21 -25 58 -35
69 -18 10 16 115 13 115 -4 0 -19 70 1 88 26 7 10 24 18 37 18 13 0 27 4 30
10 4 6 15 4 30 -6 13 -9 30 -14 37 -12 7 3 33 -5 58 -18 24 -12 48 -20 52 -18
4 3 5 -1 2 -9 -6 -15 35 -47 62 -47 21 0 53 39 54 66 0 28 -19 44 -52 44 -31
0 -78 39 -78 64 0 8 -4 16 -9 18 -12 5 -24 48 -13 48 5 0 12 -10 15 -22 6 -21
7 -21 27 -3 20 18 29 8 9 -12 -8 -8 -8 -13 0 -17 6 -4 11 -3 11 2 0 20 41 21
53 2 10 -18 13 -18 29 -3 10 9 18 21 18 27 0 6 10 16 22 21 12 6 23 16 26 23
5 17 -23 15 -42 -3 -8 -8 -19 -15 -25 -15 -5 0 -15 -8 -20 -17 -9 -16 -10 -16
-11 -1 0 9 6 18 13 21 6 2 12 17 12 33 0 21 5 29 17 28 10 -1 35 13 55 32 20
19 45 34 56 34 10 0 21 9 24 20 6 24 61 42 81 27 9 -7 16 -7 23 0 8 8 2 20
-20 41 -17 16 -31 34 -31 41 0 14 -37 15 -46 0 -3 -6 -15 -9 -25 -6 -12 3 -19
0 -19 -9 0 -8 -4 -14 -9 -14 -6 0 -7 15 -4 34 4 25 1 35 -11 39 -12 5 -16 2
-14 -10 3 -18 -4 -19 -77 -15 l-30 2 28 15 c15 8 34 12 41 9 16 -6 50 42 42
62 -8 21 -20 17 -75 -26z m49 -91 c0 -5 -16 -9 -35 -9 -19 0 -35 4 -35 8 0 4
16 8 35 9 19 1 35 -3 35 -8z m30 -30 c0 -11 -4 -17 -10 -14 -5 3 -10 15 -10
26 0 11 5 17 10 14 6 -3 10 -15 10 -26z m100 6 c0 -8 -2 -15 -4 -15 -2 0 -12
-3 -21 -6 -15 -6 -15 -4 -4 15 16 25 29 27 29 6z m-60 -52 c-8 -3 -19 -12 -23
-19 -10 -18 -27 -18 -27 0 0 16 15 24 45 24 14 0 16 -1 5 -5z m-90 -52 c0 -5
3 -16 6 -24 4 -12 0 -14 -16 -10 -23 6 -59 -24 -52 -45 8 -24 -13 -11 -26 15
-10 23 -10 30 3 42 13 14 15 13 15 -2 0 -9 5 -17 11 -17 6 0 9 7 5 15 -3 8 2
19 12 24 22 13 42 14 42 2z m-210 -35 c0 -3 -4 -8 -10 -11 -5 -3 -10 -1 -10 4
0 6 5 11 10 11 6 0 10 -2 10 -4z m-100 -31 c0 -8 -7 -15 -15 -15 -16 0 -20 12
-8 23 11 12 23 8 23 -8z m237 -67 c-3 -7 -5 -2 -5 12 0 14 2 19 5 13 2 -7 2
-19 0 -25z m-102 -58 c22 -9 21 -10 -15 -15 -30 -3 -43 3 -35 16 7 11 23 11
50 -1z m-40 -49 c-3 -6 -11 -8 -17 -5 -6 4 -5 9 3 15 16 10 23 4 14 -10z
m-198 3 c-3 -3 -12 -4 -19 -1 -8 3 -5 6 6 6 11 1 17 -2 13 -5z m319 -41 c-10
-11 -36 -12 -36 -2 0 5 10 9 22 9 12 0 18 -3 14 -7z"/>
<path d="M11787 10144 c6 -15 23 -19 23 -5 0 5 -7 11 -14 14 -10 4 -13 1 -9
-9z"/>
<path d="M11097 10118 c-7 -25 0 -41 14 -33 12 8 12 55 0 55 -5 0 -11 -10 -14
-22z"/>
<path d="M11760 10119 c0 -5 5 -7 10 -4 6 3 10 8 10 11 0 2 -4 4 -10 4 -5 0
-10 -5 -10 -11z"/>
<path d="M10606 9955 c-10 -8 -22 -12 -26 -10 -15 9 -19 -24 -5 -35 12 -10 22
-9 49 1 29 12 32 17 25 37 -10 26 -17 27 -43 7z"/>
<path d="M10450 9930 c0 -5 5 -10 10 -10 6 0 10 5 10 10 0 6 -4 10 -10 10 -5
0 -10 -4 -10 -10z"/>
<path d="M11795 9888 c-8 -13 -11 -24 -6 -26 11 -4 51 28 51 40 0 17 -30 7
-45 -14z"/>
<path d="M11406 9881 c-4 -7 -5 -15 -2 -18 9 -9 19 4 14 18 -4 11 -6 11 -12 0z"/>
<path d="M10680 9852 c0 -10 22 -32 32 -32 15 0 8 28 -8 34 -21 8 -24 8 -24
-2z"/>
<path d="M10250 9840 c0 -5 5 -10 10 -10 6 0 10 5 10 10 0 6 -4 10 -10 10 -5
0 -10 -4 -10 -10z"/>
<path d="M10605 9830 c-3 -5 -1 -10 4 -10 6 0 11 5 11 10 0 6 -2 10 -4 10 -3
0 -8 -4 -11 -10z"/>
<path d="M11430 9820 c0 -5 5 -10 11 -10 5 0 7 5 4 10 -3 6 -8 10 -11 10 -2 0
-4 -4 -4 -10z"/>
<path d="M11675 9800 c-3 -5 -1 -10 4 -10 6 0 11 5 11 10 0 6 -2 10 -4 10 -3
0 -8 -4 -11 -10z"/>
<path d="M10671 9744 c0 -11 3 -14 6 -6 3 7 2 16 -1 19 -3 4 -6 -2 -5 -13z"/>
<path d="M10322 9698 c4 -8 -3 -20 -14 -27 -14 -9 -17 -16 -10 -23 8 -8 16 -6
27 6 9 9 21 14 26 11 5 -4 9 -1 9 4 0 6 -4 11 -10 11 -5 0 -9 5 -7 11 1 6 -4
14 -12 17 -9 3 -12 0 -9 -10z"/>
<path d="M10474 9689 c-3 -6 -15 -9 -25 -6 -10 3 -24 -2 -30 -10 -10 -11 -8
-15 9 -20 12 -3 22 -9 22 -14 0 -5 11 -9 25 -9 14 0 25 -4 25 -10 0 -5 -5 -10
-11 -10 -5 0 -7 -4 -4 -10 3 -5 12 -10 20 -10 11 0 12 7 4 32 -5 18 -9 34 -9
34 0 1 7 1 16 0 9 0 19 5 21 12 3 7 -1 13 -8 11 -27 -3 -40 1 -34 11 3 6 2 10
-4 10 -5 0 -13 -5 -17 -11z"/>
<path d="M10570 9665 c-7 -9 -8 -15 -2 -15 5 0 12 7 16 15 3 8 4 15 2 15 -2 0
-9 -7 -16 -15z"/>
<path d="M10580 9620 c0 -5 5 -10 10 -10 6 0 10 5 10 10 0 6 -4 10 -10 10 -5
0 -10 -4 -10 -10z"/>
<path d="M10772 9528 c2 -6 10 -14 16 -16 7 -2 10 2 6 12 -7 18 -28 22 -22 4z"/>
<path d="M11263 9516 c2 -6 11 -10 21 -8 9 2 16 -2 16 -7 0 -6 15 -14 33 -19
25 -7 35 -5 44 7 18 24 16 34 -7 28 -11 -3 -18 -2 -15 3 3 4 -18 7 -45 7 -31
-1 -49 -5 -47 -11z"/>
<path d="M11030 9451 c-7 -13 -7 -22 0 -26 5 -3 10 1 10 9 0 9 5 16 10 16 6 0
10 5 10 10 0 17 -19 11 -30 -9z"/>
<path d="M11380 9449 c0 -22 23 -89 31 -89 7 0 19 25 19 41 0 5 -7 9 -15 9 -8
0 -15 7 -15 15 0 8 5 15 11 15 5 0 7 5 4 10 -8 14 -35 13 -35 -1z"/>
<path d="M11030 9390 c0 -5 5 -10 10 -10 6 0 10 5 10 10 0 6 -4 10 -10 10 -5
0 -10 -4 -10 -10z"/>
<path d="M10893 9339 c-32 -12 -30 -39 2 -39 26 0 44 25 29 40 -5 4 -19 4 -31
-1z"/>
<path d="M11111 9330 c-20 -13 -29 -44 -18 -67 5 -13 14 -23 19 -23 19 0 6
-20 -17 -26 -23 -6 -26 -10 -24 -31 1 -13 33 -2 54 17 14 13 25 16 35 10 22
-14 30 -12 23 6 -3 9 0 20 7 24 11 6 11 12 2 22 -6 8 -9 23 -6 35 3 12 0 24
-8 29 -15 10 -54 13 -67 4z"/>
<path d="M10525 10360 c3 -5 10 -10 16 -10 5 0 9 5 9 10 0 6 -7 10 -16 10 -8
0 -12 -4 -9 -10z"/>
<path d="M10030 10080 c0 -5 7 -7 15 -4 8 4 15 8 15 10 0 2 -7 4 -15 4 -8 0
-15 -4 -15 -10z"/>
<path d="M10200 10040 c0 -5 7 -10 16 -10 8 0 12 5 9 10 -3 6 -10 10 -16 10
-5 0 -9 -4 -9 -10z"/>
<path d="M12707 9473 c-12 -12 -7 -22 8 -17 8 4 15 10 15 15 0 11 -14 12 -23
2z"/>
<path d="M12327 9015 c-9 -8 -20 -15 -26 -15 -6 0 -11 -4 -11 -10 0 -5 7 -10
15 -10 8 0 15 5 15 10 0 6 9 10 20 10 21 0 27 14 11 25 -5 3 -16 -2 -24 -10z"/>
<path d="M10774 7629 c-3 -6 -1 -16 5 -22 8 -8 11 -5 11 11 0 24 -5 28 -16 11z"/>
<path d="M13125 18780 c3 -5 11 -10 16 -10 6 0 7 5 4 10 -3 6 -11 10 -16 10
-6 0 -7 -4 -4 -10z"/>
<path d="M8121 12844 c0 -11 3 -14 6 -6 3 7 2 16 -1 19 -3 4 -6 -2 -5 -13z"/>
<path d="M8180 12710 c0 -5 5 -10 11 -10 5 0 7 5 4 10 -3 6 -8 10 -11 10 -2 0
-4 -4 -4 -10z"/>
<path d="M8200 12675 c0 -8 4 -15 10 -15 5 0 7 7 4 15 -4 8 -8 15 -10 15 -2 0
-4 -7 -4 -15z"/>
<path d="M18295 11536 c-24 -17 -28 -116 -6 -124 39 -13 82 -92 50 -92 -5 0
-8 -4 -4 -9 3 -5 1 -12 -5 -16 -7 -4 -7 -12 0 -24 5 -10 9 -31 9 -47 0 -46 12
-104 22 -104 5 0 9 -9 9 -19 0 -11 5 -23 11 -27 6 -4 10 -31 8 -68 -2 -36 2
-70 10 -84 7 -13 10 -29 8 -37 -9 -23 25 -135 48 -157 17 -16 20 -26 13 -37
-7 -11 -3 -31 11 -65 12 -27 24 -46 28 -43 3 4 19 -14 35 -39 29 -47 75 -93
93 -94 6 0 16 9 23 20 10 16 9 26 -5 54 -9 19 -20 33 -25 30 -4 -3 -9 -2 -9 3
-1 4 -3 20 -4 35 -2 15 -11 38 -21 53 -9 14 -14 28 -11 32 4 3 -2 18 -13 33
-21 29 -26 68 -17 133 3 20 1 37 -4 37 -4 0 -14 27 -21 61 -9 44 -21 69 -42
90 -25 24 -30 37 -32 86 -1 32 -7 59 -13 61 -6 2 -13 30 -17 64 -4 38 -10 55
-15 46 -6 -10 -9 -8 -9 7 0 11 -3 30 -6 43 -5 16 -2 22 9 22 19 0 12 35 -14
68 -9 12 -17 38 -17 58 0 20 -4 40 -8 44 -18 16 -51 20 -69 6z"/>
<path d="M1422 660 c0 -14 2 -19 5 -12 2 6 2 18 0 25 -3 6 -5 1 -5 -13z"/>
</g>
</svg>
